<svg xmlns="http://www.w3.org/2000/svg" width="91" height="75" viewBox="0 0 91 75">
  <g fill="none" fill-rule="evenodd">
    <path fill="#4091FF" d="M45.5367581,27.3244782 C47.813596,30.740038 53.5056908,37.1442125 63.3245543,37.5711575 C63.1822519,51.8026565 60.3362045,60.483871 45.5367581,72.0113852 C30.7373117,60.483871 27.8912644,51.8026565 27.748962,37.5711575 C37.5678255,37.0018975 43.2599202,30.597723 45.5367581,27.3244782 Z"/>
    <circle cx="46" cy="49" r="10" fill="#FFF" fill-rule="nonzero"/>
    <path fill="#15203B" fill-rule="nonzero" d="M73.0011154,53.7950664 L73.0011154,51.2333966 C80.9700481,51.2333966 87.6582594,45.256167 88.3697712,37.7134725 C88.7966784,33.4440228 87.3736547,29.316888 84.5276073,26.1859583 C81.6815599,23.0550285 77.6970936,21.3472486 73.4280225,21.3472486 L72.2896035,21.3472486 L72.0049988,20.2087287 C70.8665798,10.2466793 62.4707401,2.70398482 52.5095742,2.70398482 C45.6790605,2.70398482 39.5600586,6.11954459 35.860197,11.8121442 L35.2909876,12.6660342 L34.294871,12.3814042 C33.2987544,12.0967742 32.4449402,11.9544592 31.4488236,11.9544592 C26.4682407,11.9544592 22.1991696,15.512334 21.3453554,20.3510436 L21.0607506,21.6318786 L19.9223317,21.4895636 C19.2108198,21.3472486 18.3570056,21.3472486 17.6454938,21.3472486 C9.39195636,21.3472486 2.70374501,28.0360531 2.70374501,36.2903226 C2.70374501,44.544592 9.39195636,51.2333966 17.6454938,51.2333966 L17.6454938,53.9373814 C7.96893267,53.7950664 0,45.9677419 0,36.2903226 C0,26.6129032 7.96893267,18.6432638 17.6454938,18.6432638 C18.2147033,18.6432638 18.6416104,18.6432638 19.2108198,18.6432638 C20.7761459,13.0929791 25.8990312,9.25047438 31.7334283,9.25047438 C32.5872425,9.25047438 33.4410568,9.39278937 34.4371733,9.53510436 C38.4216397,3.55787476 45.109851,0 52.5095742,0 C63.4668566,0 72.7165106,7.96963947 74.4241391,18.6432638 C79.1201173,18.9278937 83.3891883,20.9203036 86.3775381,24.3358634 C89.7927949,28.0360531 91.358121,32.8747628 90.9312139,37.8557875 C90.219702,46.8216319 82.2507694,53.7950664 73.0011154,53.7950664 Z M46.3905723,74.71537 C63.1822519,61.9070209 66.0282993,52.2296015 66.0282993,36.2903226 C66.0282993,35.5787476 65.4590898,35.0094877 64.747578,35.0094877 C52.2249695,35.0094877 46.9597818,24.6204934 46.8174795,24.1935484 C46.3905723,23.3396584 44.8252463,23.3396584 44.3983392,24.1935484 C44.1137344,24.6204934 38.8485468,35.0094877 26.4682407,35.0094877 C25.7567288,35.0094877 25.1875193,35.5787476 25.1875193,36.2903226 C25.1875193,52.2296015 28.1758691,61.9070209 44.8252463,74.71537 C45.109851,74.857685 45.3944558,75 45.6790605,75 C45.9636652,75 46.1059676,74.857685 46.3905723,74.71537 Z M45.5367581,27.3244782 C47.813596,30.740038 53.5056908,37.1442125 63.3245543,37.5711575 C63.1822519,51.8026565 60.3362045,60.483871 45.5367581,72.0113852 C30.7373117,60.483871 27.8912644,51.8026565 27.748962,37.5711575 C37.5678255,37.0018975 43.2599202,30.597723 45.5367581,27.3244782 Z M56.7786453,49.2409867 C56.7786453,42.9791271 51.65576,37.9981025 45.5367581,37.9981025 C39.2754539,37.9981025 34.294871,43.1214421 34.294871,49.2409867 C34.294871,55.3605313 39.4177563,60.483871 45.5367581,60.483871 C51.7980624,60.483871 56.7786453,55.3605313 56.7786453,49.2409867 Z M54.2172026,49.2409867 C54.2172026,53.9373814 50.3750387,57.9222011 45.5367581,57.9222011 C40.6984776,57.9222011 36.8563136,54.0796964 36.8563136,49.2409867 C36.8563136,44.402277 40.6984776,40.5597723 45.5367581,40.5597723 C50.3750387,40.5597723 54.2172026,44.402277 54.2172026,49.2409867 Z M44.9675487,52.9411765 L51.2288529,46.6793169 C51.7980624,46.1100569 51.7980624,45.256167 51.2288529,44.829222 C50.6596434,44.402277 49.8058292,44.259962 49.3789221,44.829222 L44.1137344,50.2371917 L41.8368965,47.9601518 C41.2676871,47.3908918 40.4138728,47.3908918 39.9869657,47.9601518 C39.5600586,48.5294118 39.4177563,49.3833017 39.9869657,49.8102467 L43.2599202,53.0834915 C43.544525,53.3681214 43.8291297,53.5104364 44.2560368,53.5104364 L44.2560368,53.5104364 C44.3983392,53.3681214 44.6829439,53.2258065 44.9675487,52.9411765 Z"/>
  </g>
</svg>
