<svg width="72" height="56" viewBox="0 0 72 56" fill="none" xmlns="http://www.w3.org/2000/svg">
<g clip-path="url(#clip0_3134_1565)">
<g filter="url(#filter0_d_3134_1565)">
<rect x="38" y="42" width="34" height="14" rx="7" fill="#6922FF"/>
<rect x="38.5" y="42.5" width="33" height="13" rx="6.5" stroke="#6922FF"/>
<path d="M43.6511 52V51.1435L45.9234 48.9158C46.1408 48.6964 46.3219 48.5014 46.4667 48.331C46.6116 48.1605 46.7203 47.9954 46.7927 47.8356C46.8652 47.6758 46.9014 47.5053 46.9014 47.3242C46.9014 47.1175 46.8545 46.9407 46.7608 46.7937C46.667 46.6445 46.5381 46.5295 46.3741 46.4485C46.21 46.3675 46.0236 46.3271 45.8148 46.3271C45.5996 46.3271 45.411 46.3718 45.2491 46.4613C45.0871 46.5487 44.9614 46.6733 44.8719 46.8352C44.7846 46.9972 44.7409 47.19 44.7409 47.4137H43.6127C43.6127 46.9982 43.7075 46.6371 43.8971 46.3303C44.0868 46.0234 44.3478 45.7859 44.6802 45.6175C45.0147 45.4492 45.3982 45.3651 45.8307 45.3651C46.2697 45.3651 46.6553 45.4471 46.9877 45.6112C47.3201 45.7752 47.5779 46 47.7611 46.2855C47.9465 46.571 48.0392 46.897 48.0392 47.2635C48.0392 47.5085 47.9923 47.7493 47.8986 47.9858C47.8048 48.2223 47.6397 48.4844 47.4032 48.772C47.1688 49.0597 46.8396 49.408 46.4156 49.8171L45.2874 50.9645V51.0092H48.1383V52H43.6511ZM49.342 50.7855V49.8427L52.1194 45.4545H52.9056V46.7969H52.4262L50.5565 49.7596V49.8107H54.4333V50.7855H49.342ZM52.4645 52V50.4979L52.4773 50.076V45.4545H53.5959V52H52.4645ZM59.7743 51.0028L56.0253 47.2603L56.7476 46.5348L60.4934 50.2805L59.7743 51.0028ZM56.7476 51.0028L56.0253 50.2805L59.7743 46.5348L60.4934 47.2603L56.7476 51.0028ZM62.4698 52L65.2535 46.4901V46.4453H62.0223V45.4545H66.4808V46.4677L63.7002 52H62.4698Z" fill="#F8F8FF"/>
</g>
<circle cx="16.9112" cy="8.68387" r="3.94418" fill="#6922FF" fill-opacity="0.2" stroke="#6922FF"/>
<circle cx="35.6095" cy="4.94418" r="3.94418" fill="#6922FF" fill-opacity="0.2" stroke="#6922FF"/>
<circle cx="51.3162" cy="15.4153" r="3.94418" fill="#6922FF" fill-opacity="0.2" stroke="#6922FF"/>
<circle cx="56.9442" cy="31.9442" r="3.94418" fill="#6922FF" fill-opacity="0.2" stroke="#6922FF"/>
<circle cx="21.3987" cy="51.3162" r="3.94418" fill="#6922FF" fill-opacity="0.2" stroke="#6922FF"/>
<circle cx="6.44011" cy="40.0971" r="3.94418" fill="#6922FF" fill-opacity="0.2" stroke="#6922FF"/>
<circle cx="4.94418" cy="22.1466" r="3.94418" fill="#6922FF" fill-opacity="0.2" stroke="#6922FF"/>
<circle cx="31.0061" cy="29.0503" r="8.8723" fill="#6922FF" fill-opacity="0.2" stroke="#6922FF"/>
<path d="M18.5595 34.2124C17.5247 31.5416 17.2632 28.3073 18.0089 25.5417C18.7545 22.7762 20.3628 20.3206 22.6 18.532C24.8371 16.7433 27.5865 15.7149 30.4483 15.5962C33.3101 15.4775 36.1352 16.2748 38.5128 17.872C40.8903 19.4693 42.6965 21.7833 43.6685 24.4776C44.6406 27.1719 44.7279 30.106 43.9178 32.8533C43.1077 35.6006 41.4424 38.0179 39.164 39.7538C37.798 40.7945 36.3329 41.5522 34.6984 42.0078" stroke="#6922FF" stroke-linecap="round"/>
<rect x="28.4256" y="41.1405" width="6.1408" height="2.5704" rx="1.2852" fill="#6922FF" fill-opacity="0.2" stroke="#6922FF"/>
<path d="M43.578 24.186C44.9492 24.3106 47.6916 25.5323 47.6916 29.4215C47.6916 33.3108 44.9492 34.2831 43.578 34.2831" stroke="#6922FF" stroke-linecap="round"/>
<path d="M18.4136 24.186C17.0424 24.3106 14.2999 25.5323 14.2999 29.4215C14.2999 33.3108 17.2064 34.2849 18.5776 34.2849" stroke="#6922FF" stroke-linecap="round"/>
<path d="M44.2598 31.4637L43.4529 34.2069H44.6497L46.7206 32.7142L47.5274 30.7644V28.0346L46.5861 25.7889L44.6497 24.4307L43.7084 24.3097L44.4615 28.1422L44.2598 31.4637Z" fill="#6922FF" fill-opacity="0.2"/>
<path d="M17.6692 31.4637L18.476 34.2069H17.2793L15.2084 32.7142L14.4015 30.7644V28.0346L15.3429 25.7889L17.2793 24.4307L18.2206 24.3097L17.4675 28.1422L17.6692 31.4637Z" fill="#6922FF" fill-opacity="0.2"/>
</g>
<defs>
<filter id="filter0_d_3134_1565" x="-2" y="10" width="114" height="94" filterUnits="userSpaceOnUse" color-interpolation-filters="sRGB">
<feFlood flood-opacity="0" result="BackgroundImageFix"/>
<feColorMatrix in="SourceAlpha" type="matrix" values="0 0 0 0 0 0 0 0 0 0 0 0 0 0 0 0 0 0 127 0" result="hardAlpha"/>
<feOffset dy="8"/>
<feGaussianBlur stdDeviation="20"/>
<feComposite in2="hardAlpha" operator="out"/>
<feColorMatrix type="matrix" values="0 0 0 0 0.0901961 0 0 0 0 0.768627 0 0 0 0 0.811765 0 0 0 0.2 0"/>
<feBlend mode="normal" in2="BackgroundImageFix" result="effect1_dropShadow_3134_1565"/>
<feBlend mode="normal" in="SourceGraphic" in2="effect1_dropShadow_3134_1565" result="shape"/>
</filter>
<clipPath id="clip0_3134_1565">
<rect width="72" height="56" fill="white"/>
</clipPath>
</defs>
</svg>
