<svg width="72" height="56" viewBox="0 0 72 56" fill="none" xmlns="http://www.w3.org/2000/svg">
<rect x="0.5" y="42.5" width="50" height="5" rx="2.5" fill="#007BFF" fill-opacity="0.2" stroke="#007BFF"/>
<path d="M5.5 42.5H45.5V15C45.5 13.067 43.933 11.5 42 11.5H9C7.067 11.5 5.5 13.067 5.5 15V42.5Z" fill="#007BFF" fill-opacity="0.2" stroke="#007BFF"/>
<rect x="0.5" y="-0.5" width="32" height="23" rx="0.5" transform="matrix(1 0 0 -1 9 38)" fill="#007BFF" stroke="#007BFF"/>
<rect x="13.5" y="19.5" width="11.3411" height="4.02785" rx="2.01393" fill="#007BFF" stroke="#F8F8FF"/>
<rect x="21.2702" y="30.0128" width="11.3411" height="4.48493" rx="2.24247" fill="#007BFF" stroke="#F8F8FF"/>
<path d="M18.4849 24.0278V24.0278C18.4849 25.0804 19.189 26.0031 20.2043 26.2809L25.45 27.7166C26.4653 27.9945 27.1694 28.9171 27.1694 29.9698V29.9698" stroke="#F8F8FF" stroke-linecap="round"/>
<path d="M38.597 27.8541C38.597 27.8573 38.5938 27.8573 38.5938 27.8573C37.9546 27.8771 36.3837 28.0004 35.6063 28.7786C34.829 29.5569 34.6812 31.1541 34.6555 31.8064C34.6555 31.8064 34.6523 31.8128 34.6491 31.8128L34.6426 31.8128L34.6362 31.8128C34.633 31.8128 34.633 31.8096 34.633 31.8096C34.6073 31.1573 34.4595 29.5604 33.6822 28.7834C32.9048 28.0063 31.3339 27.8822 30.6947 27.8666L30.6915 27.8634L30.6915 27.8602L30.6915 27.857C30.6915 27.857 30.6915 27.8538 30.6947 27.8538C31.3339 27.834 32.9048 27.7107 33.6822 26.9324C34.4595 26.1542 34.6073 24.557 34.633 23.9047C34.633 23.9047 34.6362 23.8983 34.6394 23.8983L34.6459 23.8983L34.6523 23.8983C34.6555 23.8983 34.6587 23.9015 34.6587 23.9015C34.6844 24.5538 34.829 26.1507 35.6096 26.9277C36.3869 27.7048 37.9578 27.8289 38.597 27.8444C38.6002 27.8444 38.6003 27.8444 38.6003 27.8477L38.6003 27.8509L38.597 27.8541C38.6002 27.8509 38.6002 27.8509 38.597 27.8541Z" fill="#F8F8FF"/>
<path d="M32.8418 24.3451C32.8418 24.3468 32.84 24.3468 32.84 24.3468C32.4922 24.3575 31.6376 24.4244 31.2146 24.8462C30.7917 25.268 30.7113 26.1337 30.6973 26.4873C30.6973 26.4873 30.6956 26.4908 30.6938 26.4908L30.6903 26.4908L30.6868 26.4908C30.6851 26.4908 30.6851 26.4891 30.6851 26.4891C30.6711 26.1355 30.5907 25.2699 30.1677 24.8488C29.7448 24.4276 28.8901 24.3603 28.5423 24.3519L28.5406 24.3502L28.5406 24.3484L28.5406 24.3467C28.5406 24.3467 28.5406 24.3449 28.5423 24.3449C28.8901 24.3342 29.7448 24.2674 30.1677 23.8455C30.5907 23.4237 30.6711 22.558 30.6851 22.2044C30.6851 22.2044 30.6868 22.2009 30.6886 22.2009L30.6921 22.2009L30.6956 22.2009C30.6973 22.2009 30.699 22.2027 30.699 22.2027C30.713 22.5562 30.7917 23.4218 31.2164 23.843C31.6393 24.2641 32.494 24.3314 32.8418 24.3399C32.8435 24.3398 32.8435 24.3398 32.8435 24.3416L32.8435 24.3433L32.8418 24.3451C32.8435 24.3433 32.8435 24.3433 32.8418 24.3451Z" fill="#F8F8FF"/>
</svg>
