<svg width="72" height="56" viewBox="0 0 72 56" fill="none" xmlns="http://www.w3.org/2000/svg">
<path d="M22.0753 9.61775C22.4275 9.5622 22.7879 9.6339 23.092 9.81998L45.783 23.7057C46.2284 23.9783 46.5 24.463 46.5 24.9852V48.0964C46.5 48.9248 45.8284 49.5964 45 49.5964L21.9618 49.5964C21.2625 49.5964 20.656 49.1132 20.4997 48.4315L12.3262 12.7786C12.132 11.9315 12.6961 11.0972 13.5545 10.9618L22.0753 9.61775Z" fill="#F8F8FF" stroke="#2B215B"/>
<path d="M1.5 11C1.5 10.1716 2.17157 9.5 3 9.5H22C22.8284 9.5 23.5 10.1716 23.5 11V49.5963H3C2.17157 49.5963 1.5 48.9248 1.5 48.0963V11Z" fill="#CFCDDE" stroke="#2B215B"/>
<rect x="6.82947" y="27.0963" width="3.28571" height="4.92857" rx="1" fill="#2B215B"/>
<rect x="14.8849" y="27.0963" width="3.28571" height="4.92857" rx="1" fill="#2B215B"/>
<rect x="6.82947" y="16.207" width="3.28571" height="4.92857" rx="1" fill="#2B215B"/>
<rect x="14.8849" y="16.207" width="3.28571" height="4.92857" rx="1" fill="#2B215B"/>
<rect x="6.82947" y="38.5963" width="3.28571" height="4.92857" rx="1" fill="#2B215B"/>
<rect x="14.8849" y="38.5963" width="3.28571" height="4.92857" rx="1" fill="#2B215B"/>
<rect x="29.8295" y="38.5963" width="3.28571" height="4.92857" rx="1" fill="#2B215B"/>
<rect x="37.8849" y="38.5963" width="3.28571" height="4.92857" rx="1" fill="#2B215B"/>
<rect x="29.8295" y="27.0963" width="3.28571" height="4.92857" rx="1" fill="#2B215B"/>
<rect x="37.8849" y="27.0963" width="3.28571" height="4.92857" rx="1" fill="#2B215B"/>
</svg>
