<svg width="72" height="56" viewBox="0 0 72 56" fill="none" xmlns="http://www.w3.org/2000/svg">
<circle cx="47.9441" cy="9.94418" r="3.94418" fill="#0070F3" fill-opacity="0.2" stroke="#0070F3"/>
<circle cx="52.9441" cy="42.9442" r="3.94418" fill="#0070F3" fill-opacity="0.2" stroke="#0070F3"/>
<circle cx="20.9441" cy="50.9442" r="3.94418" fill="#0070F3" fill-opacity="0.2" stroke="#0070F3"/>
<circle cx="7.94414" cy="15.9442" r="3.94418" fill="#0070F3" fill-opacity="0.2" stroke="#0070F3"/>
<circle cx="31.0061" cy="29.0503" r="8.8723" fill="#0070F3" fill-opacity="0.2" stroke="#0070F3"/>
<path d="M18.5595 34.2124C17.5247 31.5416 17.2632 28.3073 18.0089 25.5417C18.7545 22.7762 20.3628 20.3206 22.6 18.532C24.8371 16.7433 27.5865 15.7149 30.4483 15.5962C33.3101 15.4775 36.1352 16.2748 38.5128 17.872C40.8903 19.4693 42.6965 21.7833 43.6685 24.4776C44.6406 27.1719 44.7279 30.106 43.9178 32.8533C43.1077 35.6006 41.4424 38.0179 39.164 39.7538C37.7979 40.7945 36.3329 41.5522 34.6984 42.0078" stroke="#0070F3" stroke-linecap="round"/>
<rect x="28.4256" y="41.1405" width="6.1408" height="2.5704" rx="1.2852" fill="#0070F3" fill-opacity="0.2" stroke="#0070F3"/>
<path d="M43.578 24.186C44.9492 24.3106 47.6916 25.5323 47.6916 29.4215C47.6916 33.3108 44.9492 34.2831 43.578 34.2831" stroke="#0070F3" stroke-linecap="round"/>
<path d="M18.4136 24.186C17.0424 24.3106 14.3 25.5323 14.3 29.4215C14.3 33.3108 17.2064 34.2849 18.5776 34.2849" stroke="#0070F3" stroke-linecap="round"/>
<path d="M44.2598 31.4637L43.4529 34.2069H44.6497L46.7206 32.7143L47.5274 30.7644V28.0346L46.5861 25.7889L44.6497 24.4307L43.7084 24.3098L44.4615 28.1422L44.2598 31.4637Z" fill="#0070F3" fill-opacity="0.2"/>
<path d="M17.6692 31.4637L18.4761 34.2069H17.2793L15.2084 32.7143L14.4016 30.7644V28.0346L15.3429 25.7889L17.2793 24.4307L18.2206 24.3098L17.4675 28.1422L17.6692 31.4637Z" fill="#0070F3" fill-opacity="0.2"/>
</svg>
