<svg id="layer" xmlns="http://www.w3.org/2000/svg" xmlns:xlink="http://www.w3.org/1999/xlink" viewBox="0 0 83 67"><defs><style>.cls-1{fill:url(#linear-gradient);}.cls-2{fill:#fff;fill-rule:evenodd;}</style><linearGradient id="linear-gradient" x1="-159.04" y1="132.7" x2="-158.57" y2="133.18" gradientTransform="matrix(80, 0, 0, -80, 12745.71, 10654)" gradientUnits="userSpaceOnUse"><stop offset="0" stop-color="#4d27a8"/><stop offset="1" stop-color="#a166ff"/></linearGradient></defs><g id="Icon-Architecture_64_Arch_Amazon-Redshiftct_64" data-name="Icon-Architecture/64/Arch_Amazon-Redshiftct_64"><g id="Icon-Architecture-BG_64_Analytics" data-name="Icon-Architecture-BG/64/Analytics"><rect id="Rectangle" class="cls-1" x="22.5" y="-0.09" width="38" height="38"/></g><path id="Amazon-Redshift_Icon_64_Squid" data-name="Amazon-Redshift Icon 64 Squid" class="cls-2" d="M46.64,16.61a.91.91,0,1,1,.91-.91.91.91,0,0,1-.91.91m-2.31,5.54a.91.91,0,1,1,.91-.91.91.91,0,0,1-.91.91m-5.55-.92a.91.91,0,1,1,.92-.91.91.91,0,0,1-.92.91M36.47,26.3a.91.91,0,1,1,.92-.91.91.91,0,0,1-.92.91M46.64,13.84a1.85,1.85,0,0,0-1.06,3.38l-.87,2.2a1.58,1.58,0,0,0-.38,0,1.85,1.85,0,0,0-1.75,1.26l-1.95-.44a1.86,1.86,0,1,0-3.22,1.36l-.85,2h-.09a1.86,1.86,0,1,0,1.86,1.86,1.84,1.84,0,0,0-.86-1.56l.75-1.75a2.11,2.11,0,0,0,.56.09,1.85,1.85,0,0,0,1.67-1l2.06.47a1.86,1.86,0,1,0,3.05-1.75l.91-2.31.17,0a1.86,1.86,0,0,0,0-3.72M41.5,31.26c-4.62,0-8.08-1.39-8.08-2.63V10.9c1.58,1.28,4.9,2,8.09,2s6.49-.67,8.07-1.94V28.63c0,1.24-3.46,2.63-8.08,2.63m0-24.71c4.75,0,8.07,1.42,8.07,2.68s-3.32,2.68-8.07,2.68-8.07-1.41-8.07-2.68,3.32-2.68,8.07-2.68m9,2.68c0-2.35-4.64-3.62-9-3.62s-9,1.27-9,3.62h0V28.63c0,2.32,4.64,3.58,9,3.58s9-1.26,9-3.58V9.24h0"/></g><path d="M23,51.93l-.93-2.58H18.52l-.91,2.58H16l3.48-9.32h1.65l3.47,9.32ZM21.67,48l-.87-2.52c-.06-.17-.15-.44-.26-.8s-.19-.63-.23-.8a15.75,15.75,0,0,1-.51,1.71L19,48Z"/><path d="M31.59,51.93h-1.5V47.6a2,2,0,0,0-.3-1.2,1.11,1.11,0,0,0-.95-.4,1.47,1.47,0,0,0-1.27.56,3.31,3.31,0,0,0-.4,1.87v3.5H25.68v-7h1.16l.21.92h.08a2,2,0,0,1,.85-.78,2.73,2.73,0,0,1,1.22-.27,2.13,2.13,0,0,1,2.14,1.1h.11a2.2,2.2,0,0,1,.87-.81,2.86,2.86,0,0,1,1.3-.29,2.35,2.35,0,0,1,1.83.64A2.8,2.8,0,0,1,36,47.35v4.58H34.53V47.6a1.89,1.89,0,0,0-.31-1.2,1.11,1.11,0,0,0-.95-.4,1.5,1.5,0,0,0-1.28.54,2.87,2.87,0,0,0-.4,1.67Z"/><path d="M42.5,51.93l-.3-1h-.05a2.82,2.82,0,0,1-1,.87,3.19,3.19,0,0,1-1.32.23,2.24,2.24,0,0,1-1.62-.55,2.09,2.09,0,0,1-.58-1.58,1.87,1.87,0,0,1,.8-1.64,4.7,4.7,0,0,1,2.46-.61l1.21,0v-.38a1.39,1.39,0,0,0-.31-1,1.24,1.24,0,0,0-1-.34,3.59,3.59,0,0,0-1,.16,7.24,7.24,0,0,0-.95.38l-.48-1.07a4.87,4.87,0,0,1,1.25-.45,5.4,5.4,0,0,1,1.28-.16,3,3,0,0,1,2,.58,2.29,2.29,0,0,1,.68,1.84v4.73Zm-2.22-1a1.85,1.85,0,0,0,1.3-.45,1.64,1.64,0,0,0,.49-1.27v-.61l-.9,0a3.11,3.11,0,0,0-1.53.36,1.07,1.07,0,0,0-.48,1,1,1,0,0,0,.28.73A1.19,1.19,0,0,0,40.28,50.91Z"/><path d="M50.34,51.93H45V51l3.55-5H45.23V44.91h5v1l-3.47,4.84h3.58Z"/><path d="M58.09,48.4a3.83,3.83,0,0,1-.89,2.69,3.14,3.14,0,0,1-2.45,1A3.31,3.31,0,0,1,53,51.61a2.89,2.89,0,0,1-1.16-1.28,4.32,4.32,0,0,1-.41-1.93,3.78,3.78,0,0,1,.88-2.66,3.16,3.16,0,0,1,2.47-1,3.11,3.11,0,0,1,2.41,1A3.82,3.82,0,0,1,58.09,48.4ZM53,48.4c0,1.63.59,2.44,1.79,2.44s1.78-.81,1.78-2.44S56,46,54.76,46a1.53,1.53,0,0,0-1.36.62A3.19,3.19,0,0,0,53,48.4Z"/><path d="M66,51.93h-1.5V47.61a1.88,1.88,0,0,0-.33-1.21,1.25,1.25,0,0,0-1-.4,1.65,1.65,0,0,0-1.38.56,3.07,3.07,0,0,0-.44,1.87v3.5H59.8v-7H61l.21.92h.07a2.17,2.17,0,0,1,.91-.78,3,3,0,0,1,1.29-.27A2.26,2.26,0,0,1,66,47.35Z"/><path d="M18.28,62.22v3.71H16.76V56.65h2.62a4.28,4.28,0,0,1,2.66.67,2.41,2.41,0,0,1,.86,2,2.53,2.53,0,0,1-1.8,2.47l2.62,4.11H22l-2.22-3.71Zm0-1.26h1a2.43,2.43,0,0,0,1.54-.39,1.44,1.44,0,0,0,.47-1.17,1.27,1.27,0,0,0-.51-1.13,2.81,2.81,0,0,0-1.55-.34h-1Z"/><path d="M28,66.05a3.4,3.4,0,0,1-2.57-1,3.65,3.65,0,0,1-.92-2.63,4,4,0,0,1,.86-2.71,3,3,0,0,1,2.35-1,2.88,2.88,0,0,1,2.2.85A3.2,3.2,0,0,1,30.71,62v.8H26a2.3,2.3,0,0,0,.55,1.58,2,2,0,0,0,1.47.54,5.91,5.91,0,0,0,1.15-.11,6.33,6.33,0,0,0,1.16-.39v1.21a4.83,4.83,0,0,1-1.11.37A7,7,0,0,1,28,66.05Zm-.28-6.14a1.51,1.51,0,0,0-1.14.45,2.21,2.21,0,0,0-.51,1.31h3.19a1.94,1.94,0,0,0-.42-1.31A1.43,1.43,0,0,0,27.7,59.91Z"/><path d="M34.77,66.05a2.42,2.42,0,0,1-2.05-1,5.19,5.19,0,0,1,0-5.36,2.45,2.45,0,0,1,2.06-1,2.41,2.41,0,0,1,2.11,1H37a9.29,9.29,0,0,1-.11-1.19V56.05h1.5v9.88H37.2L36.94,65h-.07A2.38,2.38,0,0,1,34.77,66.05Zm.4-1.2a1.62,1.62,0,0,0,1.34-.52,2.71,2.71,0,0,0,.43-1.68v-.21a3.19,3.19,0,0,0-.43-1.88A1.61,1.61,0,0,0,35.16,60a1.38,1.38,0,0,0-1.22.64,3.29,3.29,0,0,0-.42,1.82,3.25,3.25,0,0,0,.41,1.78A1.41,1.41,0,0,0,35.17,64.85Z"/><path d="M45.22,63.93a1.85,1.85,0,0,1-.75,1.58,3.65,3.65,0,0,1-2.15.54,5.13,5.13,0,0,1-2.25-.42V64.34a5.51,5.51,0,0,0,2.3.57c.92,0,1.38-.28,1.38-.83a.63.63,0,0,0-.15-.44,1.66,1.66,0,0,0-.5-.37,8.39,8.39,0,0,0-1-.43,4.76,4.76,0,0,1-1.64-.94,1.77,1.77,0,0,1-.42-1.22,1.6,1.6,0,0,1,.72-1.4,3.5,3.5,0,0,1,2-.5,5.65,5.65,0,0,1,2.34.5l-.48,1.13a5.07,5.07,0,0,0-1.91-.47c-.79,0-1.18.22-1.18.67a.68.68,0,0,0,.31.56,6.46,6.46,0,0,0,1.34.62,6.09,6.09,0,0,1,1.26.62,1.9,1.9,0,0,1,.59.65A1.93,1.93,0,0,1,45.22,63.93Z"/><path d="M53,65.93H51.51V61.61a1.88,1.88,0,0,0-.33-1.21,1.25,1.25,0,0,0-1-.4,1.67,1.67,0,0,0-1.38.56,3.13,3.13,0,0,0-.44,1.88v3.49H46.83V56.05h1.49v2.51a12,12,0,0,1-.08,1.29h.1a2,2,0,0,1,.85-.79,2.66,2.66,0,0,1,1.26-.28A2.26,2.26,0,0,1,53,61.35Z"/><path d="M55,57.05a.87.87,0,0,1,.22-.62.89.89,0,0,1,.63-.21.85.85,0,0,1,.61.21.87.87,0,0,1,.22.62.76.76,0,0,1-.83.82.89.89,0,0,1-.63-.22A.85.85,0,0,1,55,57.05Zm1.58,8.88H55.08v-7h1.49Z"/><path d="M62.23,60H60.51v5.89H59V60H57.86v-.7L59,58.88v-.46a2.56,2.56,0,0,1,.58-1.84,2.38,2.38,0,0,1,1.78-.6,4.85,4.85,0,0,1,1.55.26l-.39,1.13a3.41,3.41,0,0,0-1-.18.85.85,0,0,0-.74.32,1.53,1.53,0,0,0-.24.94v.46h1.72Z"/><path d="M66,64.85a3.8,3.8,0,0,0,1.09-.17V65.8a3.36,3.36,0,0,1-.64.18,4.28,4.28,0,0,1-.81.07c-1.41,0-2.12-.74-2.12-2.23V60h-1v-.66l1-.55.51-1.48h.92v1.56h2V60h-2v3.75a1.06,1.06,0,0,0,.27.8A1,1,0,0,0,66,64.85Z"/></svg>