<svg id="layer" xmlns="http://www.w3.org/2000/svg" xmlns:xlink="http://www.w3.org/1999/xlink" viewBox="0 0 83 67"><defs><style>.cls-1{fill:url(#linear-gradient);}.cls-2{fill:#fff;fill-rule:evenodd;}</style><linearGradient id="linear-gradient" x1="-371.06" y1="132.7" x2="-370.59" y2="133.18" gradientTransform="matrix(80, 0, 0, -80, 29707.41, 10654)" gradientUnits="userSpaceOnUse"><stop offset="0" stop-color="#2e27ad"/><stop offset="1" stop-color="#527fff"/></linearGradient></defs><g id="Icon-Architecture_64_Arch_Amazon-DynamoDB_64" data-name="Icon-Architecture/64/Arch_Amazon-DynamoDB_64"><g id="Icon-Architecture-BG_64_Database" data-name="Icon-Architecture-BG/64/Database"><rect id="Rectangle" class="cls-1" x="22.5" y="-0.09" width="38" height="38"/></g><path id="Amazon-DynamoDB_Icon_64_Squid" data-name="Amazon-DynamoDB Icon 64 Squid" class="cls-2" d="M47.24,26c-1.58,1.28-4.91,2-8.09,2s-6.51-.68-8.1-2v2.58h0c0,1.29,3.32,2.72,8.1,2.72s8.09-1.43,8.09-2.72Zm0-4.9h.95a2.16,2.16,0,0,1-.85,1.6,2.13,2.13,0,0,1,.85,1.59h0v4.28h0c0,2.38-4.66,3.67-9,3.67s-9-1.28-9-3.65h0v-4.3h0a2.14,2.14,0,0,1,.85-1.6,2.14,2.14,0,0,1-.85-1.58h0v-4.3h0a2.14,2.14,0,0,1,.85-1.6,2.14,2.14,0,0,1-.85-1.59h0V9.27h0c0-2.38,4.66-3.66,9-3.66a18,18,0,0,1,6.52,1.08l-.36.87a17.14,17.14,0,0,0-6.16-1c-4.78,0-8.1,1.43-8.1,2.72S34.37,12,39.15,12h.38l0,.94h-.42c-3.19,0-6.51-.68-8.1-2v2.58h0c0,.49.51.93.94,1.2a13.52,13.52,0,0,0,6.12,1.49l0,.94a15,15,0,0,1-6.31-1.48,1.49,1.49,0,0,0-.7,1c0,1.29,3.32,2.73,8.1,2.73.46,0,.93,0,1.38,0l.06.94c-.47,0-1,.05-1.44.05-3.19,0-6.51-.68-8.1-2v2.58h0c0,.5.51.94.94,1.21,1.46.93,4.2,1.51,7.16,1.51h.2v.95h-.2a16,16,0,0,1-7.4-1.5,1.44,1.44,0,0,0-.7,1c0,1.29,3.32,2.73,8.1,2.73s8.09-1.44,8.09-2.72h0a1.46,1.46,0,0,0-.7-1,6,6,0,0,1-.76.38l-.37-.87a4.89,4.89,0,0,0,.89-.46c.43-.28.94-.71.94-1.2Zm4.07-6.9H48.65a.45.45,0,0,1-.39-.2.46.46,0,0,1,0-.44l1.62-4H43.69l-2.85,5.66h3a.47.47,0,0,1,.38.19.48.48,0,0,1,.07.42l-2.71,8.43ZM52.77,14,40.89,26.29a.48.48,0,0,1-.34.14.5.5,0,0,1-.24-.06.47.47,0,0,1-.21-.55l3.13-9.75H40.08a.49.49,0,0,1-.41-.23.45.45,0,0,1,0-.45L43,8.79a.47.47,0,0,1,.42-.26h7.13a.48.48,0,0,1,.39.21.46.46,0,0,1,0,.44l-1.62,4h3.07a.48.48,0,0,1,.44.29.46.46,0,0,1-.09.51Zm-21,14.71a9.78,9.78,0,0,0,2.52.94l.23-.91a9.32,9.32,0,0,1-2.28-.85Zm2.52-6.59.23-.92a9.32,9.32,0,0,1-2.28-.85l-.47.82a10.15,10.15,0,0,0,2.52.95Zm-2.52-8.49.47-.82a9.32,9.32,0,0,0,2.28.85l-.23.92a10.15,10.15,0,0,1-2.52-.95Z"/></g><path d="M24.42,51.07l-.86-2.38H20.29l-.84,2.38H18l3.21-8.6H22.7l3.21,8.6ZM23.2,47.48l-.81-2.33c-.06-.15-.14-.4-.24-.74s-.18-.58-.21-.73a12.77,12.77,0,0,1-.47,1.57l-.77,2.23Z"/><path d="M32.35,51.07H31v-4A1.82,1.82,0,0,0,30.69,46a1,1,0,0,0-.88-.36,1.34,1.34,0,0,0-1.17.52,3,3,0,0,0-.37,1.72v3.23H26.89V44.59H28l.19.85h.07a1.79,1.79,0,0,1,.79-.72,2.59,2.59,0,0,1,1.12-.25,2,2,0,0,1,2,1h.1a2,2,0,0,1,.81-.75,2.52,2.52,0,0,1,1.19-.27,2.16,2.16,0,0,1,1.69.59,2.55,2.55,0,0,1,.53,1.79v4.22H35.07v-4A1.82,1.82,0,0,0,34.78,46a1,1,0,0,0-.88-.36,1.34,1.34,0,0,0-1.17.5,2.57,2.57,0,0,0-.38,1.54Z"/><path d="M42.42,51.07l-.28-.9h0a2.7,2.7,0,0,1-1,.8,2.82,2.82,0,0,1-1.21.22,2.06,2.06,0,0,1-1.5-.52,2,2,0,0,1-.53-1.46,1.72,1.72,0,0,1,.74-1.51,4.38,4.38,0,0,1,2.27-.56l1.12,0v-.35a1.35,1.35,0,0,0-.29-.93,1.19,1.19,0,0,0-.9-.3,3.43,3.43,0,0,0-1,.14A8.31,8.31,0,0,0,39,46l-.45-1a4.38,4.38,0,0,1,1.15-.42,5.17,5.17,0,0,1,1.19-.15,2.79,2.79,0,0,1,1.86.54,2.13,2.13,0,0,1,.63,1.7v4.36Zm-2.05-.94a1.69,1.69,0,0,0,1.2-.42A1.49,1.49,0,0,0,42,48.54V48l-.83,0a2.84,2.84,0,0,0-1.42.33,1,1,0,0,0-.44.88.86.86,0,0,0,.26.68A1.14,1.14,0,0,0,40.37,50.13Z"/><path d="M49.66,51.07H44.74v-.85L48,45.64H44.94v-1h4.62v1L46.36,50h3.3Z"/><path d="M56.81,47.82A3.56,3.56,0,0,1,56,50.3a2.94,2.94,0,0,1-2.27.89,3.16,3.16,0,0,1-1.61-.41,2.79,2.79,0,0,1-1.07-1.18,4,4,0,0,1-.37-1.78,3.55,3.55,0,0,1,.8-2.46,2.94,2.94,0,0,1,2.28-.89,2.84,2.84,0,0,1,2.23.91A3.46,3.46,0,0,1,56.81,47.82Zm-4.72,0c0,1.49.56,2.24,1.66,2.24s1.64-.75,1.64-2.24-.55-2.22-1.65-2.22a1.42,1.42,0,0,0-1.26.57A2.92,2.92,0,0,0,52.09,47.82Z"/><path d="M64.09,51.07H62.71v-4a1.74,1.74,0,0,0-.3-1.12,1.15,1.15,0,0,0-1-.37,1.54,1.54,0,0,0-1.28.51,2.86,2.86,0,0,0-.4,1.73v3.23H58.39V44.59h1.08l.19.85h.07a2,2,0,0,1,.84-.72,2.88,2.88,0,0,1,1.19-.25,2.08,2.08,0,0,1,2.33,2.38Z"/><path d="M16.92,59.71A4.25,4.25,0,0,1,15.74,63a4.7,4.7,0,0,1-3.39,1.12H10V55.5H12.6a4.38,4.38,0,0,1,3.19,1.11A4.12,4.12,0,0,1,16.92,59.71Zm-1.47,0c0-2-1-3.07-2.88-3.07H11.36v6.21h1C14.41,62.89,15.45,61.85,15.45,59.75Z"/><path d="M17.63,57.59h1.5l1.32,3.67a7.31,7.31,0,0,1,.4,1.48h0a4.56,4.56,0,0,1,.19-.78c.09-.31.59-1.76,1.49-4.37h1.49l-2.78,7.34a2.62,2.62,0,0,1-2.52,2,3.8,3.8,0,0,1-.89-.1V65.76a3.11,3.11,0,0,0,.71.07A1.44,1.44,0,0,0,20,64.68l.24-.61Z"/><path d="M30.75,64.07H29.37v-4a1.74,1.74,0,0,0-.3-1.12,1.15,1.15,0,0,0-1-.37,1.54,1.54,0,0,0-1.28.51,2.86,2.86,0,0,0-.4,1.73v3.23H25.05V57.59h1.08l.19.85h.07a2,2,0,0,1,.83-.72,2.93,2.93,0,0,1,1.2-.25,2.08,2.08,0,0,1,2.33,2.38Z"/><path d="M36.72,64.07l-.27-.9H36.4a2.68,2.68,0,0,1-.94.8,2.89,2.89,0,0,1-1.22.22,2,2,0,0,1-1.49-.52,1.92,1.92,0,0,1-.54-1.46A1.72,1.72,0,0,1,33,60.7a4.41,4.41,0,0,1,2.27-.56l1.12,0v-.35a1.35,1.35,0,0,0-.29-.93,1.19,1.19,0,0,0-.9-.3,3.31,3.31,0,0,0-.95.14,7.68,7.68,0,0,0-.88.35l-.45-1A4.33,4.33,0,0,1,34,57.62a5,5,0,0,1,1.18-.15,2.82,2.82,0,0,1,1.87.54,2.13,2.13,0,0,1,.63,1.7v4.36Zm-2-.94a1.69,1.69,0,0,0,1.2-.42,1.49,1.49,0,0,0,.46-1.17V61l-.83,0a2.87,2.87,0,0,0-1.42.33,1,1,0,0,0-.44.88.9.9,0,0,0,.26.68A1.14,1.14,0,0,0,34.67,63.13Z"/><path d="M45.09,64.07H43.71v-4A1.82,1.82,0,0,0,43.42,59a1,1,0,0,0-.87-.36,1.31,1.31,0,0,0-1.17.52A3,3,0,0,0,41,60.84v3.23H39.63V57.59h1.08l.19.85H41a1.82,1.82,0,0,1,.78-.72,2.64,2.64,0,0,1,1.13-.25,2,2,0,0,1,2,1H45a2,2,0,0,1,.81-.75,2.59,2.59,0,0,1,1.2-.27,2.19,2.19,0,0,1,1.69.59,2.6,2.6,0,0,1,.53,1.79v4.22H47.8v-4A1.82,1.82,0,0,0,47.52,59a1.06,1.06,0,0,0-.88-.36,1.36,1.36,0,0,0-1.18.5,2.57,2.57,0,0,0-.37,1.54Z"/><path d="M56.85,60.82A3.52,3.52,0,0,1,56,63.3a2.91,2.91,0,0,1-2.26.89,3.16,3.16,0,0,1-1.61-.41,2.79,2.79,0,0,1-1.07-1.18,4,4,0,0,1-.38-1.78,3.51,3.51,0,0,1,.81-2.46,2.94,2.94,0,0,1,2.28-.89,2.84,2.84,0,0,1,2.23.91A3.51,3.51,0,0,1,56.85,60.82Zm-4.72,0c0,1.49.55,2.24,1.66,2.24s1.64-.75,1.64-2.24-.55-2.22-1.65-2.22a1.42,1.42,0,0,0-1.26.57A2.92,2.92,0,0,0,52.13,60.82Z"/><path d="M65.54,59.71A4.29,4.29,0,0,1,64.37,63,4.74,4.74,0,0,1,61,64.07H58.58V55.5h2.65a4.37,4.37,0,0,1,3.18,1.11A4.12,4.12,0,0,1,65.54,59.71Zm-1.47,0c0-2-1-3.07-2.88-3.07H60v6.21h1C63,62.89,64.07,61.85,64.07,59.75Z"/><path d="M67.38,55.5h2.55a4.88,4.88,0,0,1,2.56.52,1.81,1.81,0,0,1,.78,1.63,2,2,0,0,1-.38,1.25,1.71,1.71,0,0,1-1.12.62v.06a2.27,2.27,0,0,1,1.33.67,2.07,2.07,0,0,1,.42,1.36,2.2,2.2,0,0,1-.8,1.81,3.51,3.51,0,0,1-2.24.65h-3.1ZM68.78,59h1.35a2.23,2.23,0,0,0,1.28-.28,1.06,1.06,0,0,0,.41-.94,1,1,0,0,0-.44-.87A2.7,2.7,0,0,0,70,56.68H68.78Zm0,1.14v2.71h1.49a2.23,2.23,0,0,0,1.33-.33,1.25,1.25,0,0,0,.45-1.07,1.13,1.13,0,0,0-.46-1,2.46,2.46,0,0,0-1.39-.32Z"/></svg>