<?xml version="1.0" encoding="utf-8"?>
<!-- Generator: Adobe Illustrator 25.1.0, SVG Export Plug-In . SVG Version: 6.00 Build 0)  -->
<svg version="1.1" id="Layer_1" xmlns="http://www.w3.org/2000/svg" xmlns:xlink="http://www.w3.org/1999/xlink" x="0px" y="0px"
	 viewBox="0 0 80 80" style="enable-background:new 0 0 80 80;" xml:space="preserve">
<style type="text/css">
	.st0{fill:#FFFFFF;}
</style>
<path class="st0" d="M63.2,38.6c0-0.1-0.1-0.2-0.1-0.2c-0.7-1.3-1.4-2.7-2.1-4c0,0-0.1-0.1,0-0.2c0-0.1,0-0.1,0.1-0.2
	c1.1-1.3,2.2-2.6,3.3-3.9c0,0,0.1-0.1,0.1-0.2l-1,0.3c-1.3,0.4-2.7,0.7-4,1.1c0,0,0,0-0.1,0c0,0,0,0-0.1,0c0,0,0,0-0.1,0s0,0,0-0.1
	c-0.8-1.3-1.5-2.5-2.3-3.8c0-0.1-0.1-0.1-0.2-0.2c-0.1,0.3-0.1,0.7-0.2,1c-0.2,1.2-0.4,2.4-0.6,3.6c0,0.1-0.1,0.3-0.1,0.4
	s-0.1,0.2-0.2,0.2c-1.6,0.5-3.2,1-4.8,1.5c-0.1,0-0.2,0.1-0.2,0.1l3.9,1.5c0,0-0.1,0.1-0.1,0.1c-0.8,0.5-1.6,1-2.4,1.6
	c0,0-0.1,0-0.1,0.1c-0.1,0-0.1,0-0.1,0c-1-0.4-1.9-0.9-2.9-1.3c-0.4-0.2-0.8-0.5-1.1-0.8c-0.7-0.8-0.6-1.8,0.4-2.4
	c0.3-0.2,0.6-0.3,1-0.4c1.6-0.5,3.1-1,4.7-1.5c0.1,0,0.1,0,0.2-0.1c0,0,0.1-0.1,0.1-0.2c0.2-1.2,0.4-2.4,0.6-3.6
	c0.1-0.6,0.2-1.3,0.5-1.9c0.1-0.2,0.3-0.4,0.4-0.6c0.6-0.7,1.5-0.7,2.1-0.1c0.2,0.2,0.4,0.5,0.6,0.7c0.7,1.2,1.4,2.4,2.1,3.5
	c0,0,0,0.1,0,0.1c0,0,0,0,0.1,0.1c0,0,0.1,0,0.1,0c0,0,0.1,0,0.1,0c1.7-0.5,3.5-0.9,5.2-1.4c0.4-0.1,0.7-0.1,1.1-0.1
	c0.8,0.1,1.2,0.8,0.9,1.5c-0.1,0.3-0.3,0.7-0.6,0.9c-1.2,1.4-2.5,2.9-3.7,4.3c0,0-0.1,0.1-0.1,0.2c0,0.1,0,0.1,0,0.2
	c0.7,1.4,1.5,2.7,2.2,4.1c0.2,0.3,0.3,0.7,0.3,1c0,0.4-0.1,0.8-0.4,1.1c-0.3,0.3-0.6,0.5-1.1,0.6c-0.5,0.1-0.9,0-1.4-0.2
	c-1.1-0.3-2.2-0.7-3.3-1c0,0-0.1,0-0.1-0.1c0,0,0-0.1,0-0.1c-0.1-0.8-0.3-1.5-0.4-2.3c0,0,0-0.1,0-0.1L63.2,38.6 M61.1,49.8
	c-1,0-2,0-3,0c-0.1,0-0.1,0-0.2,0c0,0-0.1-0.1-0.1-0.1c-1.2-1.8-2.3-3.5-3.5-5.3c0-0.1-0.1-0.1-0.1-0.2c-0.3,1.9-0.5,3.8-0.7,5.6
	h-2.6c0-0.2,0.1-0.5,0.1-0.7c0.3-1.9,0.5-3.8,0.8-5.7c0.2-1.8,0.5-3.7,0.7-5.5c0,0,0-0.1,0-0.1c0,0,0,0,0.1-0.1
	c0.9-0.6,1.8-1.2,2.7-1.7c0,0,0,0,0.1,0L54.5,42l0,0l4.2-4.7c0,0.2,0.1,0.4,0.1,0.6c0.1,0.6,0.2,1.2,0.3,1.7c0,0,0,0.1,0,0.1
	s0,0.1-0.1,0.1l-2.7,2.8L56.2,43c0,0,0.1,0.1,0.1,0.1c1.6,2.2,3.1,4.3,4.7,6.5C61,49.7,61,49.7,61.1,49.8L61.1,49.8z M30.5,44.2
	c0-0.3-0.1-0.5-0.2-0.8c-0.2-0.6-0.7-1.2-1.3-1.5c-0.6-0.3-1.3-0.4-1.9-0.2c-0.7,0.2-1.4,0.5-1.9,1.1c-0.5,0.6-0.8,1.3-0.9,2
	c-0.1,0.6,0.1,1.2,0.4,1.6c0.3,0.5,0.8,0.9,1.3,1.1c0.4,0.2,0.9,0.2,1.4,0.2c0.5-0.1,0.9-0.2,1.3-0.5C29.8,46.6,30.4,45.6,30.5,44.2
	z M23.7,49.1c-0.1,0.6-0.1,1.1-0.2,1.6c-0.1,0.7-0.2,1.4-0.3,2.1c0,0.1,0,0.1-0.1,0.1c-0.7,0-1.4,0-2.1,0c0,0,0,0-0.1,0
	c0-0.3,0.1-0.7,0.1-1c0.1-1.2,0.3-2.4,0.5-3.6c0.2-1.4,0.3-2.7,0.6-4.1c0.4-2.4,2.4-4.4,4.8-4.9c1.4-0.3,2.7-0.2,3.9,0.6
	c0.6,0.4,1.1,0.8,1.4,1.4c0.4,0.6,0.6,1.2,0.6,1.9c0.2,2-0.5,3.7-1.9,5c-0.9,0.9-2.1,1.5-3.3,1.7c-0.6,0.1-1.3,0.1-1.9,0
	c-0.6-0.1-1.2-0.4-1.8-0.8L23.7,49.1L23.7,49.1z M22.6,37.8l-2.3,1.7c-0.1-0.2-0.2-0.4-0.4-0.6c-0.3-0.5-0.7-0.8-1.3-0.9
	c-0.2,0-0.5,0-0.7,0.1c-0.2,0.1-0.4,0.2-0.6,0.4c-0.1,0.2-0.2,0.4-0.2,0.6c0,0.2,0.1,0.4,0.2,0.6c0.3,0.4,0.7,0.8,1,1.2
	c0.6,0.6,1.2,1.2,1.8,1.9c0.5,0.5,0.9,1.2,1.1,2c0.1,0.9,0,1.8-0.5,2.6c-0.4,0.7-0.9,1.3-1.6,1.8c-0.7,0.5-1.4,0.8-2.2,0.9
	c-0.7,0.1-1.5,0.1-2.2-0.1c-0.5-0.1-0.9-0.4-1.2-0.7c-0.4-0.3-0.6-0.7-0.8-1.1c-0.2-0.3-0.3-0.7-0.4-1l2.5-1.3c0,0.1,0,0.1,0.1,0.2
	c0.1,0.3,0.3,0.6,0.4,0.9c0.2,0.4,0.6,0.6,1,0.8c0.4,0.1,0.9,0.1,1.2-0.1c0.2-0.1,0.4-0.2,0.6-0.4c0.3-0.2,0.4-0.5,0.5-0.8
	c0-0.3,0-0.7-0.2-0.9c-0.2-0.3-0.5-0.7-0.8-1c-0.7-0.8-1.4-1.5-2.1-2.3c-0.5-0.5-0.8-1.2-0.9-1.9c-0.1-0.8,0-1.5,0.4-2.2
	c1-1.6,2.5-2.5,4.4-2.4c0.5,0,1,0.2,1.5,0.4c0.5,0.2,0.9,0.6,1.2,1C22.2,37.2,22.4,37.5,22.6,37.8z M41.4,46.5
	c-0.1,1-0.3,1.9-0.4,2.9c0,0,0,0.1,0,0.1c0,0,0,0-0.1,0.1c-1.9,0.9-4.4,0.8-6-1c-0.4-0.5-0.7-1-0.9-1.6c-0.2-0.6-0.3-1.2-0.2-1.8
	c0.1-2.9,2.6-5.5,5.5-5.8c1.7-0.2,3.2,0.2,4.4,1.6c0.8,0.9,1.2,2,1.1,3.2c0,0.8-0.2,1.6-0.3,2.3c-0.1,1.1-0.3,2.2-0.4,3.3l0,0.1
	h-2.3c0-0.3,0.1-0.5,0.1-0.7c0.2-1.3,0.3-2.5,0.5-3.8c0.1-0.8,0-1.6-0.3-2.3c-0.2-0.4-0.4-0.7-0.8-0.9c-0.3-0.2-0.7-0.4-1.1-0.4
	c-0.9-0.1-1.7,0.2-2.4,0.7c-0.7,0.5-1.2,1.3-1.4,2.1c-0.2,1.1,0.1,2.2,1.1,2.8c0.9,0.6,1.8,0.6,2.8,0.2C40.6,47.2,41,46.9,41.4,46.5
	z M51.1,39.5l-0.3,2.4c-0.5,0-1,0-1.4,0c-0.2,0-0.4,0.1-0.5,0.2c-0.2,0.1-0.3,0.3-0.3,0.4c0,0.1-0.1,0.3-0.1,0.4
	c-0.2,1.8-0.5,3.6-0.7,5.5c-0.1,0.5-0.1,0.9-0.2,1.4h-2.4c0-0.4,0.1-0.7,0.1-1c0.2-1.2,0.3-2.4,0.5-3.5c0.1-1,0.3-2,0.4-3.1
	c0.2-1.4,1.6-2.6,3-2.6C49.7,39.5,50.4,39.5,51.1,39.5 M63.9,49.8v-1l-0.4,1h-0.1l-0.4-1v1h-0.2v-1.2h0.3l0.4,0.9l0.4-0.9h0.3v1.2
	H63.9z M62.1,48.8v1h-0.2v-1h-0.4v-0.2h1v0.2H62.1z M25.8,36.1h0.6l-0.1-0.9L25.8,36.1z M25.5,36.6l-0.3,0.6h-0.7l1.5-2.9h0.7
	l0.5,2.9h-0.6l-0.1-0.6H25.5z M30,35h-0.4l-0.1,0.7h0.4c0.1,0,0.1,0,0.2,0c0,0,0.1,0,0.1-0.1c0,0,0.1-0.1,0.1-0.1c0,0,0-0.1,0-0.2
	c0,0,0-0.1,0-0.1c0,0,0-0.1-0.1-0.1C30.2,35,30.1,35,30,35C30.1,35,30,35,30,35L30,35z M29.1,34.4h0.9c0.1,0,0.2,0,0.3,0
	c0.1,0,0.2,0.1,0.3,0.2s0.1,0.2,0.2,0.3c0,0.1,0.1,0.2,0.1,0.3c0,0.1,0,0.3-0.1,0.4c-0.1,0.1-0.1,0.2-0.2,0.3
	c-0.1,0.1-0.2,0.2-0.4,0.2c-0.1,0-0.3,0.1-0.4,0.1h-0.4l-0.2,1h-0.6L29.1,34.4L29.1,34.4z M32.9,36.1h0.6l-0.1-0.9L32.9,36.1z
	 M33.6,36.6h-1l-0.3,0.6h-0.7l1.5-2.9h0.7l0.5,2.9h-0.6L33.6,36.6z M37.5,37.1c-0.2,0.1-0.4,0.1-0.7,0.1c-0.2,0-0.3,0-0.5-0.1
	c-0.2-0.1-0.3-0.2-0.4-0.3c-0.1-0.1-0.2-0.3-0.3-0.4c-0.1-0.2-0.1-0.3-0.1-0.5c0-0.4,0.2-0.9,0.5-1.2c0.3-0.3,0.7-0.5,1.2-0.5
	c0.2,0,0.4,0,0.6,0.1l-0.1,0.7c-0.1-0.1-0.2-0.1-0.3-0.2c-0.1,0-0.2-0.1-0.3-0.1c-0.3,0-0.5,0.1-0.7,0.3s-0.3,0.4-0.3,0.7
	c0,0.1,0,0.2,0,0.3c0,0.1,0.1,0.2,0.1,0.2c0.1,0.1,0.1,0.1,0.2,0.2c0.1,0,0.2,0.1,0.3,0.1c0.2,0,0.5-0.1,0.7-0.2L37.5,37.1
	L37.5,37.1z M41.2,36.1h-1.3l-0.2,1.2h-0.6l0.5-2.9h0.6L40,35.5h1.3l0.2-1.1h0.6l-0.5,2.9H41L41.2,36.1z M43.4,37.3l0.5-2.9h1.6
	L45.4,35h-1l-0.1,0.6h0.9l-0.1,0.6h-0.9l-0.1,0.6h1L45,37.3H43.4z"/>
</svg>
