<svg id="Layer_1" data-name="Layer 1" xmlns="http://www.w3.org/2000/svg" xmlns:xlink="http://www.w3.org/1999/xlink" viewBox="0 0 200 80"><defs><style>.cls-1{fill:url(#linear-gradient);}.cls-2{fill:#fff;fill-rule:evenodd;}.cls-3{fill:#232f3e;}</style><linearGradient id="linear-gradient" x1="-456.23" y1="1243.29" x2="-455.23" y2="1244.29" gradientTransform="matrix(80, 0, 0, -80, 36498, 99543)" gradientUnits="userSpaceOnUse"><stop offset="0" stop-color="#4d27a8"/><stop offset="1" stop-color="#a166ff"/></linearGradient></defs><g id="Icon-Architecture_64_Arch_AWS-Glue_64" data-name="Icon-Architecture/64/Arch_AWS-Glue_64"><g id="Icon-Architecture-BG_64_Analytics" data-name="Icon-Architecture-BG/64/Analytics"><rect id="Rectangle" class="cls-1" width="80" height="80"/></g><path id="AWS-Glue_Icon_64_Squid" data-name="AWS-Glue Icon 64 Squid" class="cls-2" d="M33,23h2V21H33Zm-2,1V20a1,1,0,0,1,1-1h4a1,1,0,0,1,1,1v4a1,1,0,0,1-1,1H32a1,1,0,0,1-1-1Zm10-7h2V15H41Zm-2,1V14a1,1,0,0,1,1-1h4a1,1,0,0,1,1,1v4a1,1,0,0,1-1,1H40a1,1,0,0,1-1-1Zm4,9h2V25H43Zm-1-4h4a1,1,0,0,1,1,1v4a1,1,0,0,1-1,1H42a1,1,0,0,1-1-1V24a1,1,0,0,1,1-1ZM40,33.5c-1.76,0-8.15-.08-12.3-1.1L37.85,48.47A1,1,0,0,1,38,49v2.28a6.82,6.82,0,0,0,4,0V49a1,1,0,0,1,.15-.53L52.3,32.4c-4.15,1-10.54,1.1-12.3,1.1ZM24.25,30.69a1.3,1.3,0,0,1-.25-.75c0-2.85,9.38-3.37,15-3.44l0,2c-6.87.08-11.07.86-12.55,1.45C28,30.6,32.64,31.5,40,31.5S52,30.61,53.54,30a19.78,19.78,0,0,0-4.66-1l.24-2c6.06.74,6.88,1.9,6.88,2.94a1.37,1.37,0,0,1-.25.75L44,49.29V52a1,1,0,0,1-.63.93,8.7,8.7,0,0,1-3.3.65,9.87,9.87,0,0,1-3.42-.64A1,1,0,0,1,36,52V49.29ZM46.92,59.62a1,1,0,0,1-.21,1.09l-6,6a1,1,0,0,1-1.42,0l-6-6a1,1,0,0,1-.21-1.09A1,1,0,0,1,34,59h3V56h2v4a1,1,0,0,1-1,1H36.41L40,64.59,43.59,61H42a1,1,0,0,1-1-1V56h2v3h3a1,1,0,0,1,.92.62Z"/></g><path class="cls-3" d="M106.92,48.63l-1.64-4.57H99l-1.6,4.57H94.57l6.14-16.49h2.92l6.15,16.49Zm-2.34-6.88L103,37.28c-.12-.3-.27-.77-.47-1.41s-.33-1.12-.41-1.42a24.58,24.58,0,0,1-.89,3l-1.48,4.28Z"/><path class="cls-3" d="M127.09,48.63h-2.92l-2.78-9.8c-.12-.42-.27-1-.45-1.85s-.29-1.36-.33-1.67c-.07.47-.19,1.1-.36,1.86s-.31,1.33-.42,1.71l-2.72,9.75h-2.92l-2.12-8.23-2.16-8.19h2.74L115,41.77a41.15,41.15,0,0,1,.78,4.07c.09-.64.21-1.35.37-2.13s.32-1.43.45-1.91l2.68-9.59h2.66l2.74,9.63a35.81,35.81,0,0,1,.83,4,28.73,28.73,0,0,1,.81-4.09l2.33-9.54h2.72Z"/><path class="cls-3" d="M143.16,44.17a4.13,4.13,0,0,1-1.58,3.43,6.9,6.9,0,0,1-4.37,1.25,10.35,10.35,0,0,1-4.56-.87V45.45a12.49,12.49,0,0,0,2.39.83,10.16,10.16,0,0,0,2.35.3,3.69,3.69,0,0,0,2.35-.61,2,2,0,0,0,.76-1.62,2,2,0,0,0-.7-1.57,10.51,10.51,0,0,0-2.87-1.51,7.67,7.67,0,0,1-3.17-2.08,4.41,4.41,0,0,1-.92-2.81,3.94,3.94,0,0,1,1.46-3.23A6,6,0,0,1,138.22,32a11.53,11.53,0,0,1,4.7,1l-.86,2.19a10.32,10.32,0,0,0-3.91-.92,3,3,0,0,0-2,.57,1.87,1.87,0,0,0-.68,1.5,2.07,2.07,0,0,0,.27,1.09,2.72,2.72,0,0,0,.89.86,14.57,14.57,0,0,0,2.22,1.07,12.52,12.52,0,0,1,2.66,1.4,4.21,4.21,0,0,1,1.23,1.47A4.51,4.51,0,0,1,143.16,44.17Z"/><path class="cls-3" d="M159,39.72h6V48a18,18,0,0,1-2.84.69,20.94,20.94,0,0,1-2.95.2,7.41,7.41,0,0,1-5.75-2.21,8.85,8.85,0,0,1-2-6.22,8.3,8.3,0,0,1,2.28-6.21A8.57,8.57,0,0,1,160.06,32a12.24,12.24,0,0,1,4.88,1L164,35.19a9.59,9.59,0,0,0-4-.92,5.4,5.4,0,0,0-4.16,1.65,6.39,6.39,0,0,0-1.53,4.52A6.71,6.71,0,0,0,155.69,45a5,5,0,0,0,4,1.57,13.33,13.33,0,0,0,2.78-.32V42H159Z"/><path class="cls-3" d="M171.37,48.63h-2.64V31.15h2.64Z"/><path class="cls-3" d="M183.91,48.63,183.54,47h-.14a3.75,3.75,0,0,1-1.57,1.36,5.33,5.33,0,0,1-2.31.49,4.58,4.58,0,0,1-3.37-1.12A4.68,4.68,0,0,1,175,44.32V36.2h2.66v7.66a3.31,3.31,0,0,0,.58,2.14,2.22,2.22,0,0,0,1.83.72,2.89,2.89,0,0,0,2.44-1,5.47,5.47,0,0,0,.78-3.33V36.2H186V48.63Z"/><path class="cls-3" d="M195.17,48.85a6,6,0,0,1-4.53-1.69A6.42,6.42,0,0,1,189,42.5a7,7,0,0,1,1.51-4.78A5.24,5.24,0,0,1,194.69,36a5.12,5.12,0,0,1,3.88,1.49A5.68,5.68,0,0,1,200,41.58V43h-8.28a4.11,4.11,0,0,0,1,2.78,3.39,3.39,0,0,0,2.59,1,9.42,9.42,0,0,0,2.05-.21,10.67,10.67,0,0,0,2-.69V48a8.43,8.43,0,0,1-1.95.65A11.77,11.77,0,0,1,195.17,48.85ZM194.69,38a2.64,2.64,0,0,0-2,.8,3.82,3.82,0,0,0-.9,2.32h5.64a3.51,3.51,0,0,0-.74-2.33A2.53,2.53,0,0,0,194.69,38Z"/></svg>