<svg xmlns="http://www.w3.org/2000/svg" xmlns:xlink="http://www.w3.org/1999/xlink" viewBox="0 0 121.71 39.77"><defs><style>.cls-1{fill:url(#linear-gradient);}.cls-2{fill:url(#linear-gradient-2);}.cls-3{fill:url(#radial-gradient);}</style><linearGradient id="linear-gradient" x1="-1804.6" y1="1793.38" x2="-1773.12" y2="1811.98" gradientTransform="matrix(0.38, 0, 0, -0.38, 692.7, 711.34)" gradientUnits="userSpaceOnUse"><stop offset="0" stop-color="#909ca9"/><stop offset="1" stop-color="#ededee"/></linearGradient><linearGradient id="linear-gradient-2" x1="-1804.49" y1="1857.96" x2="-1779.17" y2="1857.96" gradientTransform="matrix(0.38, 0, 0, -0.38, 692.7, 711.34)" gradientUnits="userSpaceOnUse"><stop offset="0" stop-color="#939fab"/><stop offset="1" stop-color="#dcdee1"/></linearGradient><radialGradient id="radial-gradient" cx="1136.37" cy="1235.8" r="33.62" gradientTransform="matrix(-0.37, -0.06, -0.11, 0.73, 566.81, -830.21)" gradientUnits="userSpaceOnUse"><stop offset="0" stop-color="#e63b32"/><stop offset="1" stop-color="#a9212a"/></radialGradient></defs><title>MSSQL_Server_Integration_services_logo</title><g id="Layer_2" data-name="Layer 2"><g id="Layer_1-2" data-name="Layer 1"><g id="layer1-2"><path id="path3639" class="cls-1" d="M17.61,14.25l-6.11,2L6.18,18.6,4.69,19c-.38.36-.78.72-1.21,1.1l-1.24,1A9.9,9.9,0,0,0,1,22.33a5.4,5.4,0,0,0-.89,1.52,2.53,2.53,0,0,0,.36,2.29,8.13,8.13,0,0,0,3.34,2.51,23,23,0,0,0,2.94,1,38.19,38.19,0,0,0,6.27.89,6.73,6.73,0,0,0,.81,0s.29-.52.59-1.13a28.4,28.4,0,0,0,2.17-5.74,26.53,26.53,0,0,0,.55-4c0-.45.05-1.95,0-2.46A16.25,16.25,0,0,0,17,15.05a.42.42,0,0,1,0-.19,4,4,0,0,1,.82-.25l-.15-.36Zm-1.4.82a14.35,14.35,0,0,1,.25,2.32,1.58,1.58,0,0,1,0,.31s-.78-.43-1.31-.77-1.34-.87-1.48-1,0,0,.34-.17c.64-.22,2.17-.71,2.21-.71Zm-3.11,1a1.46,1.46,0,0,1,.4.22,29.92,29.92,0,0,0,2.8,1.55c.17.08.19.05-.21.32a20.64,20.64,0,0,1-3.17,1.7l-.42.19a.86.86,0,0,1,.05-.26A13.09,13.09,0,0,0,13,16.57c0-.46,0-.46.05-.47Zm-.64.24a13.47,13.47,0,0,1,0,1.35,11.82,11.82,0,0,1-.42,2,2.34,2.34,0,0,1-.11.32,7.66,7.66,0,0,1-.86-.84A6.34,6.34,0,0,1,10.19,18a4.19,4.19,0,0,1-.26-.63c.07-.05,2.51-1,2.53-1Zm-3,1.19h0a1,1,0,0,1,.07.16,6.33,6.33,0,0,0,.77,1.38,7.9,7.9,0,0,0,1.06,1.15l.23.2s0,0-.72.3S9,21.4,8,21.75L7.16,22s0,0,.1-.2a25.24,25.24,0,0,0,1.82-3.68c.08-.2.16-.4.17-.45a.15.15,0,0,1,.1-.12l.09,0Zm-.93.38a9.47,9.47,0,0,1-.45,1c-.45.87-.94,1.73-1.6,2.78-.11.18-.21.35-.23.37s0,0-.1-.12a4.29,4.29,0,0,1-.36-1.08,4,4,0,0,1,0-1.37c.06-.29,0-.28.19-.35C6.58,18.79,8.49,17.9,8.51,17.91Zm8,.33v.19a25.37,25.37,0,0,1-.27,3.48c0,.18-.05.33-.05.33l-.29-.08a12.63,12.63,0,0,1-2.13-.91,9.33,9.33,0,0,1-1.08-.67l.43-.22a26,26,0,0,0,2.53-1.49l.8-.57ZM5,19.61s0,0,0,.2,0,.34,0,.5a3.31,3.31,0,0,0,.41,1.85,3.41,3.41,0,0,1,.16.35s-3.09.93-4,1.19l-.55.15s0,0,0-.07a4.84,4.84,0,0,1,1.35-2.32A6,6,0,0,1,3.76,20.3C4.23,20,5,19.63,5,19.61Zm7.21,1.29a1.1,1.1,0,0,1,.25.13A14,14,0,0,0,16,22.41l.11,0-.15.08c-.61.34-2.63,1.18-4.7,2l-.65.25-.1,0a3.54,3.54,0,0,1,.19-.36,24.35,24.35,0,0,0,1.45-3.32l.06-.17Zm-.73.24-.09.21a29,29,0,0,1-1.6,3.23c-.17.31-.31.55-.32.55L9.18,25a9.47,9.47,0,0,1-2.42-2.06l-.08-.1.42-.11a30.56,30.56,0,0,0,4.06-1.41,2.69,2.69,0,0,1,.34-.13Zm4.56,1.59h0c0,.1-.23,1.05-.42,1.74s-.3,1-.56,1.83c-.11.35-.2.64-.21.64h-.06a19.67,19.67,0,0,1-3.76-1.06c-.32-.13-.78-.34-.81-.36a5,5,0,0,1,.62-.29c2.1-.92,4.28-2,5-2.42l.17-.08Zm-10.54.36s-.58.86-1.4,2c-.29.4-.62.87-.75,1L3,26.76l-.2.3-.21-.17A8.93,8.93,0,0,1,1.69,26a3.87,3.87,0,0,1-.77-1.49c-.05-.22-.05-.33,0-.35l2.46-.58L5,23.2l.49-.11Zm.59.23.15.17a8.69,8.69,0,0,0,2.17,1.77,1.25,1.25,0,0,1,.25.16s-2.86,1-4.16,1.48l-1.35.47-.09-.06L3,27.24l.14-.19c.43-.63,1-1.32,2.17-2.75l.81-1ZM9.8,26a3,3,0,0,1,.46.16,16.15,16.15,0,0,0,1.71.53,19.74,19.74,0,0,0,2.6.45c.1,0,.15,0,.14,0l-1.22.41c-.79.24-3.22,1-5.2,1.53l-.69.2s-.2,0-.2-.05l.24-.31a27.58,27.58,0,0,0,1.88-2.53L9.8,26ZM9,26s-.32.53-.89,1.44c-.25.38-.52.82-.62,1l-.31.51L7,29.13l-.07,0c-.17,0-1.34-.45-1.64-.58A9.28,9.28,0,0,1,4.24,28a4.2,4.2,0,0,1-.8-.51l1.41-.38c2-.55,3.14-.87,3.88-1.1L9,26Zm5.76,1.35h0c0,.05-.74,2.12-1,2.78-.06.15-.08.19-.12.18L11.8,30c-1.15-.18-3.08-.51-3.57-.62l-.11,0,.69-.16c1.48-.33,2.19-.51,2.91-.73a20.27,20.27,0,0,0,2.72-1.05,2.83,2.83,0,0,1,.3-.12Z"/><path id="path3667" class="cls-2" d="M11.31,0c-.1,0-1.75.58-2.8,1A16.55,16.55,0,0,0,5.29,2.63a2.3,2.3,0,0,0-.63.62.78.78,0,0,0,0,.16L5.26,4l1.47.47,3.51.63,4,.69,0-.35h0l-.53-.09-.11-.18c-.54-1-1.14-2.16-1.49-3A13.53,13.53,0,0,1,11.45.33C11.36,0,11.36,0,11.31,0Zm-.08.24h0s0,.13,0,.28a9.45,9.45,0,0,0,.45,2c.17.51.17.48,0,.42-.47-.13-2.59-.49-4.12-.7l-.45-.07s1.1-.61,1.6-.84S11.1.26,11.23.24ZM6.78,2.31,7,2.37a28.64,28.64,0,0,0,4.8.92l.28,0-.29.15c-.65.33-1.37.73-1.87,1a2.47,2.47,0,0,1-.3.17l-.22,0-.18,0-.47-.45L7,2.53Zm-.19.14.65.81.8,1a1.07,1.07,0,0,1,.14.18s-.94-.17-1.43-.28S6,4,5.72,3.88L5.47,3.8V3.73c0-.31.4-.77,1.07-1.24l0,0Zm5.54,1.11s0,0,.1.17c.16.34.65,1.28.76,1.46s.11.06-.55,0L10.37,4.8l.11-.07a9.38,9.38,0,0,0,1.41-1l.22-.18Z"/><path id="path2851" class="cls-3" d="M4.69,3.19a.45.45,0,0,0,0,.4,1.81,1.81,0,0,0,.43.51s2.05,2,2.31,2.3A6.4,6.4,0,0,1,9.1,10.79a7.21,7.21,0,0,1-.72,3.32c-1,2.1-3,4.41-6.12,7L2.72,21a12.53,12.53,0,0,1,1.64-1A58.93,58.93,0,0,1,12,16.55,95.94,95.94,0,0,1,27.47,12.4l.43-.06-.07-.1a12.77,12.77,0,0,0-.93-1.31A11.06,11.06,0,0,0,23.63,8.2,24.5,24.5,0,0,0,16.5,5.81c-.56-.11-1.79-.32-2.79-.48-2.11-.33-3.48-.55-5-.81-.54-.1-1.35-.23-1.88-.35a12.22,12.22,0,0,1-1.22-.33c-.35-.13-.83-.26-.93-.65ZM5.88,4.34l.18.06.67.2.61.16.51.14S8.34,6.42,8.5,7c.06.22.11.4.11.41a1,1,0,0,1-.12-.18A9.5,9.5,0,0,0,6.11,4.53ZM8.16,5l.25,0c.79.18,2.19.45,3.1.6l.27.06a.38.38,0,0,1-.12.08c-.16.08-.77.45-1,.58a8.82,8.82,0,0,0-1.3,1l-.26.24s0-.08,0-.17a15.57,15.57,0,0,0-.82-2.27c-.05-.1-.1-.2-.1-.21Zm4,.76a1.62,1.62,0,0,1,.17.52,7.89,7.89,0,0,1,.22,2.11,3.54,3.54,0,0,1,0,.4v.05l-.24-.08c-.49-.15-1.3-.39-2-.58-.39-.11-.71-.21-.71-.22a8.94,8.94,0,0,1,.82-.81,22.33,22.33,0,0,1,1.77-1.39Zm.32,0s1.91.31,2.78.48c.64.12,1.57.32,1.63.34s-.07.06-.38.2a20.12,20.12,0,0,0-3,1.65L13,8.74v-.3a6.73,6.73,0,0,0-.5-2.51,1,1,0,0,1-.06-.15Zm4.91,1a3.38,3.38,0,0,1-.1.61A11.65,11.65,0,0,1,16.13,10a2.33,2.33,0,0,1-.2.31,1.31,1.31,0,0,1-.27-.14,14.7,14.7,0,0,0-1.82-.89l-.35-.15s1.45-1,2.24-1.49C16.36,7.3,17.37,6.73,17.39,6.75Zm.35,0s.89.23,1.32.36a30.11,30.11,0,0,1,3.15,1.15l.34.16-.24,0A35.24,35.24,0,0,0,17,10.17a1.75,1.75,0,0,1-.26.1.92.92,0,0,1,.09-.23A9.33,9.33,0,0,0,17.71,7a.45.45,0,0,1,0-.16ZM9.37,8.73s.66.14,1,.23c.52.15,1.64.53,1.64.55a2.13,2.13,0,0,1-.27.24c-.61.51-1.19,1-1.89,1.71l-.39.36s0,0,0-.06A10.61,10.61,0,0,0,9.4,9c0-.13,0-.24,0-.24Zm13.5,0s-.3.49-.49.76-.68.93-1.6,2.09c-.49.6-1,1.29-1.22,1.53s-.33.42-.34.42l-.13-.19a9.86,9.86,0,0,0-1.87-2.06L16.88,11l-.1-.08s.79-.35,1.39-.59c1-.43,2.46-.94,3.53-1.26.56-.18,1.16-.35,1.17-.34Zm.35.09a1.31,1.31,0,0,1,.27.13,16.11,16.11,0,0,1,3.09,2.32l.84.87-.47,0a45.79,45.79,0,0,0-6.83,1.14l-.31.07s.17-.18.39-.4A11.69,11.69,0,0,0,23,9.27c.11-.23.21-.42.21-.44ZM12.93,9.89a12,12,0,0,1,1.12.52c.42.21,1,.54,1.07.57l-.49.26c-.87.43-1.61.84-2.39,1.32l-.41.24s0,0,.11-.24A9.49,9.49,0,0,0,12.88,10c0-.08,0-.12,0-.12Zm-.6.11s-.14.58-.24.89a11.42,11.42,0,0,1-.82,1.87l-.24.43-.12.18-.26-.25a3.26,3.26,0,0,0-.86-.63,1,1,0,0,1-.22-.13A17.51,17.51,0,0,1,11,11.09C11.4,10.72,12.32,10,12.33,10ZM16,11.51l.23.14a18.86,18.86,0,0,1,1.6,1.18c.26.22.77.67.87.78l.06.06-.38.11c-2.12.58-3.75,1.11-5.66,1.81l-.41.14s-.05,0,.43-.41a20.21,20.21,0,0,0,3.1-3.57Zm-1,.24s-.63.9-1,1.41-1.25,1.61-1.81,2.26c-.23.28-.43.5-.44.51a.37.37,0,0,1,0-.17,3.89,3.89,0,0,0-.39-1.67c-.11-.21-.13-.26-.1-.28s1.43-.85,2.28-1.3c.58-.32,1.48-.77,1.49-.76ZM9.2,13.18l.24.12a4.57,4.57,0,0,1,.79.54,1.12,1.12,0,0,1-.27.22c-.43.31-1.1.82-1.49,1.13s-.42.33-.37.26a9,9,0,0,0,.62-1.07,8.85,8.85,0,0,0,.38-1,.9.9,0,0,1,.1-.23Zm1.56,1.22s.05,0,.17.22A3.41,3.41,0,0,1,11.45,16v.09l-.63.25c-1.14.44-2.18.87-2.88,1.19l-.78.37a2.81,2.81,0,0,1-.41.2l.32-.24a18.65,18.65,0,0,0,3.47-3.2l.2-.23Zm-.72.18a9,9,0,0,1-.87,1A15.43,15.43,0,0,1,6.3,17.88L6,18.05s0,0,.49-.55a10.06,10.06,0,0,0,.8-.95,1.77,1.77,0,0,1,.46-.44c.69-.49,2.25-1.55,2.27-1.53Z"/></g><g id="g3525"><path id="path168" d="M15.39,29.76h-.26v.79H15v-.79h-.26v-.1h.62Z"/><path id="path170" d="M16.44,30.55h-.1v-.77h0a.51.51,0,0,0,0,.09l-.31.68H16l-.3-.68a.46.46,0,0,1,0-.09h0v.77h-.1v-.89h.14l.27.62a.51.51,0,0,1,0,.11h0l0-.11.28-.62h.13Z"/></g><path id="path26" d="M62.26,7a.21.21,0,0,0-.06-.16A.38.38,0,0,0,62,6.77H61.8v.45H62c.18,0,.27-.08.27-.23m.25.93h-.22l-.14-.31c-.07-.16-.15-.24-.23-.24H61.8v.55h-.19V6.62H62a.51.51,0,0,1,.37.11.3.3,0,0,1,.11.24.32.32,0,0,1-.09.23.55.55,0,0,1-.24.13h0q.1,0,.21.24l.17.35Zm.41-.64a.87.87,0,0,0-.26-.64A.9.9,0,0,0,62,6.38a.89.89,0,0,0-.91.9.86.86,0,0,0,.27.65.88.88,0,0,0,.64.26.86.86,0,0,0,.63-.26.88.88,0,0,0,.27-.65m.12,0a1,1,0,0,1-.3.72,1.08,1.08,0,0,1-1.46,0,1,1,0,0,1,0-1.45A1,1,0,0,1,62,6.27a1,1,0,0,1,.72.28,1,1,0,0,1,.3.73"/><path id="path26-2" data-name="path26" d="M120.94,16.53a.22.22,0,0,0-.07-.16.37.37,0,0,0-.24-.05h-.16v.44h.2c.17,0,.27-.08.27-.23m.25.93H121l-.15-.31c-.07-.16-.15-.24-.23-.24h-.12v.55h-.18v-1.3h.37a.49.49,0,0,1,.36.11.3.3,0,0,1,.11.24.32.32,0,0,1-.09.23.43.43,0,0,1-.24.13h0c.07,0,.14.1.22.24l.17.35Zm.4-.64a.87.87,0,0,0-.26-.64.93.93,0,0,0-1.29,0,.87.87,0,0,0-.25.64.89.89,0,0,0,.26.65.92.92,0,0,0,1.28,0,.89.89,0,0,0,.26-.65m.12,0a1,1,0,0,1-1,1,1,1,0,0,1-.73-.28.94.94,0,0,1-.29-.72,1,1,0,0,1,.29-.73,1,1,0,0,1,.73-.29,1,1,0,0,1,.72.28,1,1,0,0,1,.3.73"/><path id="path28" d="M36.57,10.66H36V7.25c0-.27,0-.6.05-1h0a3.31,3.31,0,0,1-.16.5l-1.73,3.9h-.29L32.09,6.78a2.44,2.44,0,0,1-.15-.52h0c0,.21,0,.54,0,1v3.4h-.57V5.58h.78l1.57,3.55a6,6,0,0,1,.23.61h0a6.29,6.29,0,0,1,.25-.63l1.59-3.53h.75Z"/><path id="path30" d="M38.4,7v3.63h-.58V7Zm.1-1.3a.33.33,0,0,1-.11.27.37.37,0,0,1-.27.11A.4.4,0,0,1,37.85,6a.39.39,0,0,1,0-.54.4.4,0,0,1,.27-.11.37.37,0,0,1,.27.11.33.33,0,0,1,.11.27"/><path id="path32" d="M42,10.5a1.88,1.88,0,0,1-1,.25,1.65,1.65,0,0,1-1.26-.51,1.85,1.85,0,0,1-.46-1.3,2.05,2.05,0,0,1,.51-1.45,1.81,1.81,0,0,1,1.38-.55,1.92,1.92,0,0,1,.84.19v.59a1.55,1.55,0,0,0-.87-.28,1.14,1.14,0,0,0-.9.39,1.45,1.45,0,0,0-.37,1.05,1.42,1.42,0,0,0,.34,1,1.17,1.17,0,0,0,.9.37A1.47,1.47,0,0,0,42,9.94Z"/><path id="path34" d="M44.8,7.62a.7.7,0,0,0-.44-.12.75.75,0,0,0-.6.32,1.62,1.62,0,0,0-.27,1v1.85h-.58V7h.58v.75h0a1.2,1.2,0,0,1,.39-.61.89.89,0,0,1,.56-.2.94.94,0,0,1,.34,0Z"/><path id="path36" d="M48.05,8.86a1.59,1.59,0,0,0-.32-1.07,1.09,1.09,0,0,0-.86-.35,1.11,1.11,0,0,0-.86.35,1.58,1.58,0,0,0-.35,1.08,1.46,1.46,0,0,0,.33,1,1.15,1.15,0,0,0,.88.37,1.06,1.06,0,0,0,.88-.38,1.55,1.55,0,0,0,.3-1m.59,0a2,2,0,0,1-.49,1.4,1.91,1.91,0,0,1-2.62,0,1.91,1.91,0,0,1-.46-1.34,1.91,1.91,0,0,1,.53-1.46,1.78,1.78,0,0,1,1.32-.49,1.63,1.63,0,0,1,1.27.51,2,2,0,0,1,.45,1.38"/><path id="path38" d="M51.53,9.69a.91.91,0,0,1-.34.74,1.41,1.41,0,0,1-1,.32,1.72,1.72,0,0,1-.9-.22V9.91a1.44,1.44,0,0,0,.94.35q.69,0,.69-.51a.45.45,0,0,0-.15-.35,2.75,2.75,0,0,0-.6-.34,1.82,1.82,0,0,1-.65-.41A.92.92,0,0,1,49.3,8a.94.94,0,0,1,.36-.76,1.39,1.39,0,0,1,.92-.3,1.79,1.79,0,0,1,.78.17V7.7a1.38,1.38,0,0,0-.82-.26.75.75,0,0,0-.47.14A.48.48,0,0,0,49.9,8a.5.5,0,0,0,.14.37,1.72,1.72,0,0,0,.55.3,2.29,2.29,0,0,1,.67.41.87.87,0,0,1,.27.66"/><path id="path40" d="M55.08,8.86a1.59,1.59,0,0,0-.31-1.07,1.1,1.1,0,0,0-.86-.35,1.15,1.15,0,0,0-.87.35,1.57,1.57,0,0,0-.34,1.08,1.46,1.46,0,0,0,.33,1,1.14,1.14,0,0,0,.88.37,1.09,1.09,0,0,0,.88-.38,1.61,1.61,0,0,0,.29-1m.6,0a2,2,0,0,1-.49,1.4,1.73,1.73,0,0,1-1.32.52,1.67,1.67,0,0,1-1.3-.52,1.92,1.92,0,0,1-.47-1.34,2,2,0,0,1,.53-1.46A1.78,1.78,0,0,1,54,6.94a1.61,1.61,0,0,1,1.27.51,2,2,0,0,1,.46,1.38"/><path id="path42" d="M58.24,5.8a.71.71,0,0,0-.39-.1c-.4,0-.61.26-.61.77V7h.86v.5h-.86v3.13h-.58V7.53H56V7h.62V6.44A1.24,1.24,0,0,1,57,5.5a1.3,1.3,0,0,1,1.21-.23Z"/><path id="path44" d="M60.54,10.63a1.09,1.09,0,0,1-.55.12c-.63,0-1-.36-1-1.07V7.53h-.62V7H59V6.14L59.62,6V7h.92v.5h-.92V9.58a.76.76,0,0,0,.13.51.48.48,0,0,0,.41.16.64.64,0,0,0,.38-.12Z"/><g id="layer1"><g id="g3545"><g id="layer1-5"><path id="path2830" d="M35.76,12c-2.29,0-3.78.72-4.48,2.25-1,2.25-.11,4,3.15,5.86,1.83,1.07,2.65,2,2.65,3,0,2.08-2.52,2.82-5.12,1.51-.53-.27-1-.49-1-.49a16.88,16.88,0,0,0-.05,2,11.56,11.56,0,0,0,2,.57c3,.6,5.67-.8,5.93-3.06.23-2.1-.54-3.21-3.44-5-1.94-1.17-2.79-2-2.69-3,.31-2.76,3.72-2.37,5.6-1.33V12.45A7.3,7.3,0,0,0,35.76,12Zm11.42,0h-.42a6.26,6.26,0,0,0-5.84,3.82,10,10,0,0,0,0,7.25c1,2.16,2.61,3.29,5.3,3.73.56.09.95.41,2,1.69l1.35,1.59H52.1l-1.63-1.65a16.5,16.5,0,0,1-1.64-1.76,1.88,1.88,0,0,1,.76-.34,5.61,5.61,0,0,0,3.34-3.11,6.61,6.61,0,0,0,.83-3.35C54,15,51.45,12,47.18,12Zm25.19,0q-3.44,0-4.48,2.25c-1,2.26-.11,4,3.15,5.87,1.84,1.07,2.64,2,2.64,3,0,2.08-2.51,2.82-5.11,1.5l-1-.49a17,17,0,0,0,0,2,11.56,11.56,0,0,0,2,.57c3,.59,5.67-.81,5.92-3.06s-.53-3.22-3.43-5c-1.94-1.17-2.8-2-2.69-3,.3-2.77,3.72-2.38,5.6-1.33V12.48A7.16,7.16,0,0,0,72.37,12ZM56,12.16V26.5h7.56V24.8H57.79V12.16H56Zm-9,1.35c3,0,4.7,1.83,4.91,5.28.18,2.86-.78,5-2.62,5.91a5.88,5.88,0,0,1-4.07.28,5.3,5.3,0,0,1-2.83-3,8.6,8.6,0,0,1,.17-5.53A4.65,4.65,0,0,1,47.05,13.51ZM107.64,16a5.4,5.4,0,0,0-1.1.13,5.08,5.08,0,0,0-3.64,5.26,5.07,5.07,0,0,0,1.33,4c1.94,1.6,3.71,1.72,6.09.87.42-.17.85-.37.85-.37v-1.6l-.85.45c-1.92.83-3.37.83-4.53-.16a4.58,4.58,0,0,1-1.22-2.68h7.2V20.52c0-2.78-1.68-4.54-4.13-4.5Zm-26.3,0a6.1,6.1,0,0,0-1.09.13,5.09,5.09,0,0,0-3.65,5.26,5.07,5.07,0,0,0,1.34,4c1.94,1.61,3.7,1.73,6.09.88l.85-.38v-1.6l-.85.45c-1.93.83-3.38.84-4.54-.15a4.67,4.67,0,0,1-1.22-2.69h7.2V20.54C85.47,17.76,83.79,16,81.34,16Zm36.79.08a2.6,2.6,0,0,0-2.35,1.24l-.42.65V16.32h-1.79V26.48h1.79V23.23c0-3,0-3.32.45-4.13a2.21,2.21,0,0,1,2.5-1.4l.64.18V16.12Zm-26.29,0a2.64,2.64,0,0,0-2.36,1.24l-.42.65V16.34h-1.8V26.5h1.8V23.25c0-3,0-3.32.44-4.13a2.21,2.21,0,0,1,2.5-1.4l.64.18V16.14Zm1.39.18c1.2,3.38,2.49,6.83,3.81,10.17h1.7l2-5,2-5.14H101s-.78,2-1.59,4.32L98,24.51l-1.43-3.89-1.44-4.3Zm14.3,1.24a2.46,2.46,0,0,1,1.51.51,4,4,0,0,1,1.06,2.41h-5.38A4.19,4.19,0,0,1,106,18.05,2.64,2.64,0,0,1,107.53,17.56Zm-26.3,0a2.46,2.46,0,0,1,1.51.51A4,4,0,0,1,83.8,20.5H78.43a4.22,4.22,0,0,1,1.25-2.43A2.73,2.73,0,0,1,81.23,17.58Z"/></g></g></g><path d="M32.13,33v5.13h-.66V33Z"/><path d="M33.22,35.49c0-.38,0-.7,0-1h.6l0,.61h0a1.36,1.36,0,0,1,1.23-.69c.51,0,1.31.3,1.31,1.56v2.2H35.7V36.05c0-.59-.22-1.09-.85-1.09a1,1,0,0,0-.91.69.91.91,0,0,0,0,.31v2.21h-.67Z"/><path d="M38.12,33.61v.88h1V35h-1v2c0,.45.13.71.51.71a1.33,1.33,0,0,0,.39,0l0,.5a1.68,1.68,0,0,1-.6.1.94.94,0,0,1-.72-.29,1.33,1.33,0,0,1-.27-1V35h-.57v-.51h.57v-.68Z"/><path d="M40,36.45a1.19,1.19,0,0,0,1.28,1.28,2.45,2.45,0,0,0,1-.19l.11.48a2.92,2.92,0,0,1-1.23.24,1.73,1.73,0,0,1-1.83-1.87,1.79,1.79,0,0,1,1.74-2,1.56,1.56,0,0,1,1.54,1.73,1.77,1.77,0,0,1,0,.31ZM42,36a1,1,0,0,0-.93-1.08,1.11,1.11,0,0,0-1,1.08Z"/><path d="M46.55,37.64A2.1,2.1,0,0,1,46,39.32a2,2,0,0,1-1.35.45,2.4,2.4,0,0,1-1.24-.31L43.6,39a2.14,2.14,0,0,0,1.09.29c.69,0,1.2-.36,1.2-1.29v-.41h0a1.31,1.31,0,0,1-1.18.62,1.65,1.65,0,0,1-1.58-1.8,1.77,1.77,0,0,1,1.67-2,1.23,1.23,0,0,1,1.16.63h0l0-.55h.59c0,.27,0,.56,0,1Zm-.67-1.7a1,1,0,0,0,0-.3,1,1,0,0,0-.94-.71c-.65,0-1.11.54-1.11,1.39s.37,1.33,1.1,1.33a1,1,0,0,0,.94-.69,1.41,1.41,0,0,0,.05-.35Z"/><path d="M47.49,35.64c0-.44,0-.81,0-1.15h.59l0,.72h0a1.12,1.12,0,0,1,1-.8.58.58,0,0,1,.19,0v.63a.82.82,0,0,0-.23,0,1,1,0,0,0-.91.86,2.72,2.72,0,0,0,0,.31v2h-.66Z"/><path d="M52.43,37.29a4.74,4.74,0,0,0,.06.88h-.61l-.06-.46h0a1.4,1.4,0,0,1-1.14.55,1.05,1.05,0,0,1-1.13-1.06c0-.89.8-1.38,2.23-1.37v-.08a.76.76,0,0,0-.84-.85,1.93,1.93,0,0,0-1,.27l-.15-.44A2.28,2.28,0,0,1,51,34.41c1.13,0,1.41.76,1.41,1.5Zm-.65-1c-.74,0-1.58.12-1.58.83a.6.6,0,0,0,.64.64.93.93,0,0,0,.9-.61.85.85,0,0,0,0-.22Z"/><path d="M54.17,33.61v.88h1V35h-1v2c0,.45.13.71.5.71a1.28,1.28,0,0,0,.39,0l0,.5a1.66,1.66,0,0,1-.59.1,1,1,0,0,1-.73-.29,1.33,1.33,0,0,1-.26-1V35h-.58v-.51h.58v-.68Z"/><path d="M56.51,33.45a.39.39,0,0,1-.43.41.4.4,0,0,1-.41-.41.42.42,0,0,1,.42-.42A.4.4,0,0,1,56.51,33.45Zm-.76,4.72V34.49h.68v3.68Z"/><path d="M60.78,36.3a1.82,1.82,0,0,1-1.85,2,1.76,1.76,0,0,1-1.78-1.9,1.8,1.8,0,0,1,1.84-2A1.75,1.75,0,0,1,60.78,36.3Zm-3,0c0,.81.47,1.42,1.13,1.42s1.12-.61,1.12-1.44c0-.62-.31-1.41-1.11-1.41S57.83,35.64,57.83,36.34Z"/><path d="M61.49,35.49c0-.38,0-.7,0-1h.6l0,.61h0a1.38,1.38,0,0,1,1.23-.69c.52,0,1.31.3,1.31,1.56v2.2H64V36.05c0-.59-.22-1.09-.86-1.09a1,1,0,0,0-.91.69.93.93,0,0,0,0,.31v2.21h-.68Z"/><path d="M67,37.37a2.35,2.35,0,0,0,1.19.33c.69,0,1.08-.36,1.08-.87s-.27-.76-1-1S67,35.08,67,34.35,67.64,33,68.65,33a2.34,2.34,0,0,1,1.14.25l-.18.54a2.13,2.13,0,0,0-1-.24c-.7,0-1,.42-1,.77s.31.71,1,1S70,36,70,36.77s-.59,1.49-1.81,1.49a2.59,2.59,0,0,1-1.32-.34Z"/><path d="M71.17,36.45a1.19,1.19,0,0,0,1.28,1.28,2.45,2.45,0,0,0,1-.19l.11.48a2.92,2.92,0,0,1-1.23.24,1.73,1.73,0,0,1-1.83-1.87,1.79,1.79,0,0,1,1.74-2,1.56,1.56,0,0,1,1.54,1.73,1.77,1.77,0,0,1,0,.31Zm2-.48a1,1,0,0,0-.93-1.08,1.12,1.12,0,0,0-1,1.08Z"/><path d="M74.51,35.64c0-.44,0-.81,0-1.15h.59l0,.72h0a1.12,1.12,0,0,1,1-.8.55.55,0,0,1,.19,0v.63a.82.82,0,0,0-.23,0,.94.94,0,0,0-.9.86,1.48,1.48,0,0,0,0,.31v2h-.67Z"/><path d="M77.33,34.49l.73,2.07a7.21,7.21,0,0,1,.3.94h0c.09-.3.2-.6.32-.94l.72-2.07h.71l-1.46,3.68H78l-1.41-3.68Z"/><path d="M81.38,33.45a.39.39,0,0,1-.43.41.4.4,0,0,1-.41-.41A.42.42,0,0,1,81,33,.4.4,0,0,1,81.38,33.45Zm-.75,4.72V34.49h.67v3.68Z"/><path d="M84.93,38a2.44,2.44,0,0,1-1.06.22A1.76,1.76,0,0,1,82,36.37a1.88,1.88,0,0,1,2-2,2.3,2.3,0,0,1,.94.19l-.15.52A1.65,1.65,0,0,0,84,35a1.39,1.39,0,0,0,0,2.77,1.84,1.84,0,0,0,.83-.19Z"/><path d="M85.92,36.45a1.18,1.18,0,0,0,1.27,1.28,2.38,2.38,0,0,0,1-.19l.12.48a3,3,0,0,1-1.24.24,1.73,1.73,0,0,1-1.83-1.87,1.79,1.79,0,0,1,1.75-2,1.56,1.56,0,0,1,1.53,1.73,2.05,2.05,0,0,1,0,.31Zm2-.48A1,1,0,0,0,87,34.89a1.1,1.1,0,0,0-1,1.08Z"/><path d="M89.16,37.49a1.77,1.77,0,0,0,.89.27c.49,0,.72-.25.72-.55s-.19-.5-.69-.68c-.67-.24-1-.6-1-1a1.14,1.14,0,0,1,1.28-1.08,1.84,1.84,0,0,1,.91.22l-.17.49a1.44,1.44,0,0,0-.76-.21c-.39,0-.62.23-.62.5s.23.44.71.62c.64.25,1,.57,1,1.12s-.5,1.11-1.39,1.11A2.16,2.16,0,0,1,89,38Z"/></g></g></svg>