<?xml version="1.0" encoding="utf-8"?>
<!-- Generator: Adobe Illustrator 25.1.0, SVG Export Plug-In . SVG Version: 6.00 Build 0)  -->
<svg version="1.1" id="Layer_1" xmlns="http://www.w3.org/2000/svg" xmlns:xlink="http://www.w3.org/1999/xlink" x="0px" y="0px"
	 viewBox="0 0 80 80" style="enable-background:new 0 0 80 80;" xml:space="preserve">
<style type="text/css">
	.st0{fill:#417e38;}
</style>
<path class="st0" d="M25.2,29l-2.5-1.5c-0.2-0.1-0.3-0.3-0.3-0.4V24c0-0.2-0.1-0.4-0.3-0.4l-1.1-0.6c-0.1,0-0.2-0.1-0.3-0.1
	c-0.1,0-0.2,0-0.3,0.1l-1.1,0.6c-0.2,0.1-0.3,0.3-0.3,0.4v3.1c0,0.2-0.1,0.4-0.3,0.4L16.4,29c-0.1,0-0.2,0-0.3,0
	c-0.1,0-0.1-0.1-0.1-0.2l0-6.6c0-0.2,0.1-0.4,0.3-0.4l4.3-2.5c0.1,0,0.2-0.1,0.2-0.1c0,0,0,0,0,0c0.1,0,0.2,0,0.2,0.1l4.3,2.5
	c0.2,0.1,0.3,0.3,0.3,0.4l0,6.6c0,0.1,0,0.2-0.1,0.2C25.4,29,25.3,29,25.2,29z M41.7,27.2v-4.9c0-0.2,0.1-0.4,0.3-0.4l4.3-2.5
	c0.2-0.1,0.4-0.1,0.5,0l1.1,0.6c0.1,0,0.1,0,0.2,0c0.1,0,0.1-0.1,0.1-0.2v-6.6c0-0.1,0-0.2,0.1-0.2c0.1,0,0.2,0,0.3,0l2.5,1.4
	c0.2,0.1,0.3,0.3,0.3,0.5v12.3c0,0.2-0.1,0.4-0.3,0.4l-4.3,2.5c-0.2,0.1-0.4,0.1-0.5,0l-4.3-2.5C41.7,27.6,41.7,27.4,41.7,27.2z
	 M44.8,25.6c0,0,0,0.1,0.1,0.1l1.5,0.8c0,0,0.1,0,0.1,0l1.5-0.8c0,0,0.1-0.1,0.1-0.1v-1.7c0,0,0-0.1-0.1-0.1l-1.5-0.8
	c0,0-0.1,0-0.1,0l-1.5,0.8c0,0-0.1,0.1-0.1,0.1V25.6z M63.7,21.8l-4.3-2.5c-0.2-0.1-0.4-0.1-0.5,0l-4.3,2.5
	c-0.2,0.1-0.3,0.3-0.3,0.4v4.9c0,0.2,0.1,0.4,0.3,0.5L59,30c0.2,0.1,0.3,0.1,0.5,0l2.6-1.4c0.1,0,0.1-0.1,0.1-0.2
	c0-0.1,0-0.2-0.1-0.2l-4.3-2.5c-0.1,0-0.1-0.1-0.1-0.2v-1.5c0-0.1,0-0.2,0.1-0.2l1.3-0.8c0.1,0,0.2,0,0.3,0l1.3,0.8
	c0.1,0,0.1,0.1,0.1,0.2v1.2c0,0.1,0,0.2,0.1,0.2c0.1,0,0.2,0,0.3,0l2.6-1.5c0.2-0.1,0.3-0.3,0.3-0.4v-1.2C64,22,63.9,21.9,63.7,21.8
	z M29.1,27.6l4.3,2.5c0.2,0.1,0.4,0.1,0.5,0l4.3-2.5c0.2-0.1,0.3-0.3,0.3-0.4v-4.9c0-0.2-0.1-0.4-0.3-0.4l-4.3-2.5
	c-0.2-0.1-0.4-0.1-0.5,0l-4.3,2.5c-0.2,0.1-0.3,0.3-0.3,0.4v4.9C28.8,27.3,28.9,27.5,29.1,27.6z M54.6,39l-13.2-7.6
	c-0.8-0.5-1.9-0.5-2.8,0L25.4,39c-0.9,0.5-1.4,1.4-1.4,2.4v15.2c0,1,0.5,1.9,1.4,2.4l3.5,2c1.7,0.8,2.3,0.8,3,0.8
	c2.5,0,3.9-1.5,3.9-4.1v-15c0-0.2-0.2-0.4-0.4-0.4h-1.7c-0.2,0-0.4,0.2-0.4,0.4v15c0,1.2-1.2,2.3-3.2,1.3L26.6,57
	c-0.1-0.1-0.2-0.2-0.2-0.4V41.4c0-0.1,0.1-0.3,0.2-0.4l13.2-7.6c0.1-0.1,0.3-0.1,0.4,0L53.4,41c0.1,0.1,0.2,0.2,0.2,0.4v15.2
	c0,0.1-0.1,0.3-0.2,0.4l-13.2,7.6c-0.1,0.1-0.3,0.1-0.4,0l-3.4-2c-0.1-0.1-0.2-0.1-0.3,0c-0.9,0.5-1.1,0.6-2,0.9
	c-0.2,0.1-0.5,0.2,0.1,0.6l4.4,2.6C39,66.9,39.5,67,40,67c0.5,0,1-0.1,1.4-0.4L54.6,59c0.9-0.5,1.4-1.4,1.4-2.4V41.4
	C56,40.4,55.4,39.5,54.6,39z M44.6,55.2c-3.9,0-4.8-1-5.1-2.9c0-0.2-0.2-0.4-0.4-0.4h-1.9c-0.2,0-0.4,0.2-0.4,0.4
	c0,2.5,1.4,5.5,7.9,5.5c4.7,0,7.4-1.9,7.4-5.1c0-3.2-2.2-4.1-6.7-4.7c-4.6-0.6-5.1-0.9-5.1-2c0-0.9,0.4-2.1,3.8-2.1
	c3.1,0,4.2,0.7,4.6,2.7c0,0.2,0.2,0.3,0.4,0.3H51c0.1,0,0.2,0,0.3-0.1c0.1-0.1,0.1-0.2,0.1-0.3c-0.3-3.5-2.7-5.2-7.4-5.2
	c-4.2,0-6.8,1.8-6.8,4.8c0,3.3,2.5,4.2,6.6,4.6c4.9,0.5,5.3,1.2,5.3,2.1C49.1,54.5,47.7,55.2,44.6,55.2z M59.3,23.6
	C59.2,23.6,59.2,23.6,59.3,23.6l-0.9,0.5c0,0,0,0,0,0.1v0.9c0,0,0,0.1,0,0.1l0.8,0.5c0,0,0.1,0,0.1,0l0.8-0.5c0,0,0,0,0-0.1v-0.9
	c0,0,0-0.1,0-0.1L59.3,23.6z"/>
</svg>
