<?xml version="1.0" encoding="utf-8"?>
<!-- Generator: Adobe Illustrator 25.1.0, SVG Export Plug-In . SVG Version: 6.00 Build 0)  -->
<svg version="1.1" id="Layer_1" xmlns="http://www.w3.org/2000/svg" xmlns:xlink="http://www.w3.org/1999/xlink" x="0px" y="0px"
	 viewBox="0 0 80 80" style="enable-background:new 0 0 80 80;" xml:space="preserve">
<style type="text/css">
	.st0{fill-rule:evenodd;clip-rule:evenodd;fill:#499db4;}
</style>
<g>
	<ellipse class="st0" cx="40" cy="40.6" rx="4.5" ry="4.5"/>
	<path class="st0" d="M62.8,36.1c-1.3-1.2-3.2-2.3-5.5-3.1c-0.9-0.3-1.8-0.6-2.8-0.9c0.2-1,0.5-2,0.6-2.9c0.4-2.4,0.4-4.6,0-6.4
		c-0.4-1.8-1.2-3.3-2.7-4.2c-1.5-0.8-3.2-0.8-4.9-0.2c-1.7,0.6-3.6,1.7-5.4,3.2c-0.7,0.6-1.4,1.3-2.2,2c-0.7-0.7-1.5-1.4-2.2-2
		c-1.9-1.5-3.7-2.7-5.4-3.2c-1.7-0.6-3.4-0.6-4.9,0.2c-1.5,0.8-2.3,2.4-2.7,4.2c-0.4,1.8-0.3,4,0,6.4c0.1,0.9,0.4,1.9,0.6,2.9
		c-1,0.3-1.9,0.6-2.8,0.9c-2.2,0.9-4.1,1.9-5.5,3.1c-1.3,1.2-2.2,2.7-2.2,4.4c0,1.7,0.9,3.2,2.2,4.4c1.3,1.2,3.2,2.3,5.5,3.1
		c0.9,0.3,1.8,0.6,2.8,0.9c-0.2,1-0.5,2-0.6,2.9c-0.4,2.4-0.4,4.6,0,6.4c0.4,1.8,1.2,3.3,2.7,4.2c1.5,0.8,3.2,0.8,4.9,0.2
		c1.7-0.6,3.6-1.7,5.4-3.2c0.7-0.6,1.4-1.3,2.2-2c0.7,0.7,1.5,1.4,2.2,2c1.9,1.5,3.7,2.7,5.4,3.2c1.7,0.6,3.4,0.6,4.9-0.2
		c1.5-0.8,2.3-2.4,2.7-4.2c0.4-1.8,0.3-4,0-6.4C55,51,54.8,50,54.5,49c1-0.3,1.9-0.6,2.8-0.9c2.2-0.9,4.1-1.9,5.5-3.1
		c1.3-1.2,2.2-2.7,2.2-4.4C65,38.9,64.1,37.4,62.8,36.1z M43.5,23.3c1.7-1.4,3.3-2.4,4.7-2.8c1.4-0.5,2.4-0.4,3.1,0.1
		c0.7,0.4,1.3,1.3,1.6,2.7c0.3,1.4,0.3,3.3-0.1,5.6c-0.1,0.9-0.3,1.8-0.6,2.7c-2.1-0.5-4.3-0.8-6.7-1c-1.4-2-2.8-3.7-4.2-5.3
		C42.2,24.5,42.9,23.9,43.5,23.3z M47,44.6c-0.8,1.4-1.6,2.7-2.4,3.9c-1.5,0.1-3,0.2-4.5,0.2c-1.6,0-3.1-0.1-4.5-0.2
		c-0.8-1.2-1.6-2.5-2.4-3.9c-0.8-1.4-1.5-2.7-2.1-4.1c0.6-1.3,1.3-2.7,2.1-4.1c0.8-1.4,1.6-2.7,2.4-3.9c1.5-0.1,3-0.2,4.5-0.2
		c1.6,0,3.1,0.1,4.5,0.2c0.8,1.2,1.6,2.5,2.4,3.9c0.8,1.4,1.5,2.7,2.1,4.1C48.5,41.9,47.7,43.3,47,44.6z M50.2,43.1
		c0.6,1.5,1.1,2.9,1.6,4.3c-1.4,0.3-2.9,0.6-4.5,0.8c0.5-0.8,1-1.6,1.5-2.5C49.3,44.9,49.8,44,50.2,43.1z M40,54.3
		c-1-1.1-1.9-2.2-2.9-3.5c1,0,1.9,0.1,2.9,0.1c1,0,2,0,2.9-0.1C41.9,52.1,41,53.3,40,54.3z M32.7,48.2c-1.6-0.2-3.1-0.5-4.5-0.8
		c0.4-1.4,1-2.8,1.6-4.3c0.4,0.9,0.9,1.7,1.4,2.6C31.6,46.6,32.2,47.4,32.7,48.2z M29.8,38c-0.6-1.5-1.1-2.9-1.6-4.3
		c1.4-0.3,2.9-0.6,4.5-0.8c-0.5,0.8-1,1.6-1.5,2.5C30.7,36.3,30.2,37.1,29.8,38z M40,26.8c1,1.1,1.9,2.2,2.9,3.5
		c-1,0-1.9-0.1-2.9-0.1c-1,0-2,0-2.9,0.1C38.1,29,39,27.8,40,26.8z M48.8,35.4c-0.5-0.9-1-1.7-1.5-2.5c1.6,0.2,3.1,0.5,4.5,0.8
		c-0.4,1.4-1,2.8-1.6,4.3C49.8,37.1,49.3,36.3,48.8,35.4z M27,28.8c-0.4-2.2-0.4-4.1-0.1-5.6c0.3-1.4,0.9-2.3,1.6-2.7
		c0.7-0.4,1.8-0.5,3.1-0.1c1.4,0.5,3,1.4,4.7,2.8c0.7,0.5,1.3,1.2,2,1.9c-1.4,1.6-2.9,3.3-4.2,5.3c-2.4,0.2-4.6,0.6-6.7,1
		C27.4,30.6,27.2,29.7,27,28.8z M23.5,46.1c-2.1-0.8-3.7-1.7-4.8-2.7c-1.1-1-1.5-1.9-1.5-2.8c0-0.9,0.4-1.8,1.5-2.8
		c1.1-1,2.7-1.9,4.8-2.7c0.8-0.3,1.7-0.6,2.6-0.9c0.6,2,1.4,4.2,2.4,6.4c-1,2.2-1.8,4.3-2.4,6.4C25.2,46.7,24.3,46.4,23.5,46.1z
		 M36.5,57.8c-1.7,1.4-3.3,2.4-4.7,2.8c-1.4,0.5-2.4,0.4-3.1-0.1c-0.7-0.4-1.3-1.3-1.6-2.7c-0.3-1.4-0.3-3.3,0.1-5.6
		c0.1-0.9,0.3-1.8,0.6-2.7c2.1,0.5,4.3,0.8,6.7,1c1.4,2,2.8,3.7,4.2,5.3C37.8,56.6,37.1,57.2,36.5,57.8z M53,52.3
		c0.4,2.2,0.4,4.1,0.1,5.6c-0.3,1.4-0.9,2.3-1.6,2.7c-0.7,0.4-1.8,0.5-3.1,0.1c-1.4-0.5-3-1.4-4.7-2.8c-0.7-0.5-1.3-1.2-2-1.9
		c1.4-1.6,2.9-3.3,4.2-5.3c2.4-0.2,4.6-0.6,6.7-1C52.6,50.5,52.8,51.4,53,52.3z M61.3,43.3c-1.1,1-2.7,1.9-4.8,2.7
		c-0.8,0.3-1.7,0.6-2.6,0.9c-0.6-2-1.4-4.2-2.4-6.4c1-2.2,1.8-4.3,2.4-6.4c0.9,0.3,1.8,0.5,2.6,0.9c2.1,0.8,3.7,1.7,4.8,2.7
		c1.1,1,1.5,1.9,1.5,2.8C62.8,41.4,62.4,42.4,61.3,43.3z"/>
</g>
</svg>
