<svg xmlns="http://www.w3.org/2000/svg" width="80" height="79" viewBox="0 0 80 79">
  <g fill="none" fill-rule="evenodd" transform="translate(2 2)">
    <rect width="19" height="27" x="49" y="41" fill="#69BC2E"/>
    <g stroke="#15203B" stroke-width="2.5">
      <path d="M76,46 L76,2.05435347 C75.9955634,0.918478577 75.0628047,0 73.9137255,0 L2.08627451,0 C0.937195315,0 0.00443659917,0.918478577 0,2.05435347 L0,46"/>
      <polyline points="43.221 39 6 39 6 7 68 7 68 28.32"/>
      <path d="M44 46L0 46 0 52.4343164C.103633053 53.7757087 1.14279773 54.8532523 2.47430168 55L44 55M70 55L73.9917695 55C75.2510288 55 76 53.7372654 76 52.5067024L76 46 70 46M29 55C28.8899083 56.465798 29.1307339 59.6758958 28.8348624 61.2516287 28.5665138 62.7174267 28.3807339 62.7174267 27.6582569 63.1644951 27.2522936 63.4063518 26.5711009 63.7361564 26 64L24 64"/>
      <line x1="24" x2="44" y1="65.5" y2="65.5"/>
      <rect width="21" height="42" x="48" y="33" rx="1.66"/>
      <line x1="69" x2="48" y1="68.5" y2="68.5"/>
      <line x1="48" x2="69" y1="40.5" y2="40.5"/>
    </g>
  </g>
</svg>
