<svg xmlns="http://www.w3.org/2000/svg" width="75" height="80" viewBox="0 0 75 80">
  <g fill="none" fill-rule="evenodd" transform="translate(0 2)">
    <path fill="#15203B" fill-rule="nonzero" d="M65.8832571,1.18573839 C65.7770083,0.654521592 65.3113889,0.273295419 64.7692078,0.273295419 L10.2276672,0.273295419 C9.68548617,0.273295419 9.21830421,0.654521592 9.11361795,1.18573839 L0.0215382946,46.6391476 C-0.044085927,46.9735017 0.0418505537,47.3187926 0.257472996,47.5828386 C0.47465792,47.8453222 0.794966621,48 1.13715006,48 L73.8628499,48 C74.2034709,48 74.5253421,47.8453222 74.742527,47.5828386 C74.9581494,47.3187926 75.0440859,46.9735017 74.9784617,46.6391476 L65.8832571,1.18573839 Z M11.0800781,2.19970703 L63.8183594,2.19970703 L71.8925781,45.7251422 L2.52150864,45.7251422 L11.0800781,2.19970703 Z" transform="translate(0 30)"/>
    <path fill="#F38A9E" stroke="#15203B" stroke-width="2.5" d="M29.0202741,1.66977543e-13 C37.8568301,1.66977543e-13 45.0202741,7.163444 45.0202741,16 C45.0202741,18.3162914 44.5280735,20.5176232 43.6425568,22.5051107 C42.7518376,25.1292443 41.0758901,27.6213822 38.4389753,30.0715879 C34.0140079,34.1832416 30.759685,38.5437559 28.6760068,43.1531309 C27.180828,40.3993288 25.866619,38.2248496 24.7333799,36.6296934 C23.6001408,35.0345372 21.7572957,32.848502 19.2048444,30.0715879 C14.7593783,25.5912647 12.7026307,21.1310106 13.0346016,16.6908256 C13.0251821,16.4614512 13.0202741,16.2312987 13.0202741,16 C13.0202741,7.163444 20.1837181,1.66977543e-13 29.0202741,1.66977543e-13 Z M28.9991292,7 C24.038897,7 20,11.0371553 20,15.9991292 C20,20.9645864 24.0371553,25 28.9991292,25 C33.961103,25 38,20.9645864 38,15.9991292 C38,11.0371553 33.961103,7 28.9991292,7 Z"/>
    <path stroke="#15203B" stroke-dasharray="5 5.25" stroke-linecap="round" stroke-linejoin="round" stroke-width="2.5" d="M17.4893799,75.159668 C14.6349756,63.216101 15.8834318,55.8361213 21.2347484,53.0197289 C29.2617234,48.7951402 38.9129506,74.4377668 57.3349609,55.6572266 C58.8729332,52.7358298 60.7294567,50.1605685 59.4120057,47.2598981 C58.5337051,45.3261178 54.4321461,43.909407 47.1073289,43.0097656 C43.0045263,40.0356218 40.953125,35.6990332 40.953125,30"/>
  </g>
</svg>
