<svg xmlns="http://www.w3.org/2000/svg" width="74" height="73" viewBox="0 0 74 73">
  <g fill="none">
    <path fill="#15203B" d="M67.3488338,15.8029444 L53.7639536,15.8029444 C53.4963522,11.705829 51.8010453,7.88867812 48.8933099,4.9595868 C45.7164781,1.76106724 41.4931605,0 37.0007466,0 C32.5083328,0 28.2835202,1.76106724 25.1081834,4.9595868 C22.1152341,7.97296851 20.5036461,11.8503268 20.2435196,15.8029444 L6.6526595,15.8029444 C2.98397941,15.8029444 0,18.8057898 0,22.4980103 L0,58.7759954 C0,62.4682158 2.98397941,65.4740716 6.6526595,65.4740716 L20.1822254,65.4740716 L20.1822254,69.6133322 C20.1822254,71.4797625 21.6906599,73 23.5459297,73 L30.6261534,73 C32.4814231,73 33.9898576,71.4797625 33.9898576,69.6133322 L33.9898576,62.4847729 C33.9898576,60.6168375 32.4814231,59.0981051 30.6261534,59.0981051 L23.5459297,59.0981051 C21.6906599,59.0981051 20.1822254,60.6168375 20.1822254,62.4847729 L20.1822254,63.2162931 L13.454817,63.2162931 L13.454817,18.0607229 L20.2435196,18.0607229 C20.5036461,22.0133405 22.1137392,25.892204 25.1081834,28.9070909 C25.4699685,29.2713458 25.8601582,29.6280748 26.3011772,29.9938349 L26.3026722,29.9953401 C29.40326,32.5737232 33.2005083,33.8621621 37.0007466,33.8621621 C40.79949,33.8621621 44.5997283,32.5737232 47.6973261,29.9953401 C47.6973261,29.9953401 47.6973261,29.9953401 47.6988211,29.9938349 C48.1443251,29.6235592 48.5360097,29.2668302 48.8918149,28.9070909 C51.8025403,25.9764944 53.4978472,22.1578383 53.7624586,18.0607229 L60.5451814,18.0607229 L60.5451814,63.2162931 L53.8177729,63.2162931 L53.8177729,62.4847729 C53.8177729,60.6168375 52.3093384,59.0981051 50.4540686,59.0981051 L43.3738449,59.0981051 C41.5185752,59.0981051 40.0101407,60.6168375 40.0101407,62.4847729 L40.0101407,69.6133322 C40.0101407,71.4797625 41.5185752,73 43.3738449,73 L50.4540686,73 C52.3093384,73 53.8177729,71.4797625 53.8177729,69.6133322 L53.8177729,65.4740716 L67.3488338,65.4740716 C71.0175139,65.4740716 74,62.4682158 74,58.7759954 L74,22.4980103 C74.0014933,18.807295 71.0175139,15.8029444 67.3488338,15.8029444 Z M22.4246949,62.4847729 C22.4246949,61.8631312 22.9270081,61.3558836 23.5459297,61.3558836 L30.6261534,61.3558836 C31.2450749,61.3558836 31.7473881,61.8631312 31.7473881,62.4847729 L31.7473881,69.6133322 C31.7473881,70.2349739 31.2450749,70.7422215 30.6261534,70.7422215 L23.5459297,70.7422215 C22.9270081,70.7422215 22.4246949,70.2349739 22.4246949,69.6133322 L22.4246949,62.4847729 Z M51.5767984,69.6133322 C51.5767984,70.2349739 51.0744852,70.7422215 50.4555636,70.7422215 L43.3753399,70.7422215 C42.7564183,70.7422215 42.2541052,70.2349739 42.2541052,69.6133322 L42.2541052,62.4847729 C42.2541052,61.8631312 42.7564183,61.3558836 43.3753399,61.3558836 L50.4555636,61.3558836 C51.0744852,61.3558836 51.5767984,61.8631312 51.5767984,62.4847729 L51.5767984,69.6133322 Z M11.2123475,63.2162931 L6.6526595,63.2162931 C4.22182257,63.2162931 2.24246949,61.2234273 2.24246949,58.7759954 L2.24246949,22.4980103 C2.24246949,20.0505784 4.22032759,18.0607229 6.6526595,18.0607229 L11.2123475,18.0607229 L11.2123475,63.2162931 Z M28.1086076,28.5578878 C28.1071126,28.4871441 28.0981428,28.4209159 28.0981428,28.348667 C28.0981428,28.1108476 28.1086076,27.8685128 28.1280424,27.6261779 C28.1310323,27.5810223 28.1400022,27.5343615 28.1444871,27.489206 C28.1639219,27.2905215 28.1848516,27.0918369 28.2162462,26.8931524 C28.2177411,26.8750902 28.2222261,26.8600384 28.225216,26.8419761 C28.7080945,23.9189055 30.5364546,21.0289491 33.1167895,19.5117219 C34.2111146,20.3711829 35.5491214,20.8844512 37.0007466,20.8844512 C38.447887,20.8844512 39.7829038,20.3741933 40.8757339,19.5177426 C40.9714126,19.5734345 41.0760612,19.6125693 41.1702449,19.6742819 C41.2823684,19.748036 41.384027,19.8398524 41.4946555,19.918122 C41.7816916,20.1213221 42.0702227,20.3260273 42.3363291,20.5623415 C42.4349977,20.6511474 42.5187166,20.7535001 42.6129003,20.8453164 C42.8715318,21.0951772 43.1301633,21.3465432 43.3618851,21.6250026 C43.4560688,21.7348811 43.5308178,21.8598115 43.6175266,21.9742057 C43.8328037,22.2511598 44.0480808,22.528114 44.2349532,22.8231304 C44.327642,22.9706386 44.397906,23.1286831 44.4831199,23.2807068 C44.6415877,23.5621765 44.8075304,23.8391307 44.9405836,24.1311367 C45.0302824,24.328316 45.0930716,24.5345265 45.1708105,24.733211 C45.2709741,24.9921029 45.3845926,25.2479845 45.4638265,25.5098868 C45.5475454,25.7838306 45.5938897,26.0592796 45.6536889,26.3377389 C45.6970433,26.5334131 45.7583375,26.7305924 45.7897321,26.9292769 C45.8629861,27.4034104 45.9033505,27.8790491 45.9033505,28.348667 C45.9033505,28.4209159 45.8943807,28.4871441 45.8913907,28.5578878 C40.6649418,32.6218891 33.3350565,32.6218891 28.1086076,28.5578878 Z M67,40 C67.5522847,40 68,40.4477153 68,41 C68,41.5522847 67.5522847,42 67,42 C66.4477153,42 66,41.5522847 66,41 C66,40.4477153 66.4477153,40 67,40 Z M37.0007466,9.27645931 C39.5990213,9.27645931 41.4124316,11.0706406 41.4124316,13.6399926 C41.4124316,16.391472 39.4330786,18.6266727 37.0007466,18.6266727 C34.5684147,18.6266727 32.5890617,16.391472 32.5890617,13.6399926 C32.5890617,11.0706406 34.402472,9.27645931 37.0007466,9.27645931 Z M47.999312,26.565022 C47.9933321,26.5288975 47.9798773,26.492773 47.9738974,26.4551434 C47.9066233,26.0592796 47.8184195,25.6664261 47.709286,25.2735727 C47.6928412,25.2103549 47.6778914,25.1486422 47.6614466,25.0869296 C47.5433432,24.6820347 47.4028151,24.2846657 47.2443473,23.890307 C47.2084678,23.7984907 47.1725883,23.7111899 47.1337188,23.6193736 C46.969271,23.2340461 46.7898735,22.8517289 46.5895462,22.479948 C46.5491818,22.4046888 46.5043324,22.3309347 46.4624729,22.2571806 C46.2636406,21.9034619 46.0513535,21.555764 45.8196317,21.2201076 C45.7912271,21.1809728 45.7673074,21.1373224 45.7389028,21.0981876 C45.4907362,20.744469 45.2216398,20.4088126 44.9405836,20.0806821 C44.8777945,20.006928 44.8135104,19.9316687 44.7492262,19.8594198 C44.4681701,19.5463412 44.1736591,19.2498196 43.8641983,18.9668447 C43.7939342,18.9021217 43.7221752,18.8434195 43.6519112,18.7817068 C43.3260056,18.4972267 42.9881402,18.223283 42.63383,17.9779377 C42.6039304,17.9568651 42.5725359,17.9418132 42.5426363,17.9192354 C42.5007768,17.8906369 42.4589174,17.8665539 42.417058,17.8394606 C43.1944474,16.6533743 43.6578911,15.2068909 43.6578911,13.6430029 C43.6578911,9.80628467 40.8592892,7.02169117 37.0037366,7.02169117 C33.1481841,7.02169117 30.3495821,9.80778985 30.3495821,13.6430029 C30.3495821,15.2053857 30.8100359,16.6488587 31.5859303,17.8349451 C31.4992215,17.8906369 31.4140076,17.947834 31.3287938,18.005031 C31.242085,18.0667436 31.1613561,18.1299614 31.0776372,18.1931792 C30.7831262,18.4114312 30.4990801,18.6417246 30.2254988,18.8870698 C30.1731745,18.9322254 30.1178603,18.977381 30.065536,19.0255469 C29.7635501,19.3040063 29.4809989,19.6035382 29.2074177,19.9121013 C29.1326687,19.9963917 29.0579197,20.0791769 28.9861607,20.1664777 C28.7245392,20.4765459 28.4748776,20.7986556 28.2416608,21.134312 C28.1863466,21.2140869 28.1355172,21.2938617 28.083193,21.3751418 C27.8724008,21.6927359 27.6735685,22.0163509 27.489686,22.3489969 C27.4582915,22.4061939 27.4254019,22.4588754 27.3955023,22.5145673 C27.19667,22.8863482 27.0217574,23.265655 26.8602996,23.6509825 C26.8229251,23.7427988 26.7840556,23.8346151 26.7481761,23.9249263 C26.5956882,24.3132642 26.4581501,24.7046125 26.3430366,25.1004763 C26.3236019,25.17122 26.3071571,25.2404586 26.2877224,25.3112023 C26.1830738,25.6935195 26.09786,26.078847 26.0320809,26.4641745 C26.0261009,26.4987938 26.0141411,26.5349182 26.0081612,26.5665271 C21.025394,20.8076868 21.2571158,12.0369698 26.6988418,6.55809398 C29.4525943,3.78704716 33.1123045,2.26078888 37.0067266,2.26078888 C40.8996536,2.26078888 44.5608588,3.78855234 47.3131164,6.55809398 C50.0653739,9.33064599 51.5812833,13.0153405 51.5812833,16.9363492 C51.5767984,20.5111652 50.3135405,23.8933174 47.999312,26.565022 Z M71.7590238,58.7759954 C71.7590238,61.2234273 69.7811657,63.2162931 67.3503288,63.2162931 L62.7891458,63.2162931 L62.7891458,18.0607229 L67.3503288,18.0607229 C69.7811657,18.0607229 71.7590238,20.0505784 71.7590238,22.4980103 L71.7590238,58.7759954 Z"/>
    <path fill="#15203B" d="M6,35.0833333 L6,45.9166667 C6,46.5132222 6.448,47 7,47 C7.552,47 8,46.5132222 8,45.9166667 L8,35.0833333 C8,34.4838889 7.552,34 7,34 C6.448,34 6,34.4838889 6,35.0833333 Z"/>
    <path fill="#1A171B" d="M66.2893333,49.2789059 C66.0986667,49.4708844 66,49.7340158 66,49.9931197 C66,50.2549085 66.1,50.5180399 66.2893333,50.708676 C66.4786667,50.8899144 66.74,51 67,51 C67.26,51 67.52,50.8899144 67.7093333,50.708676 C67.8893333,50.5166974 68,50.2549085 68,49.9931197 C68,49.7340158 67.8893333,49.4695419 67.7093333,49.2789059 C67.3293333,48.9070314 66.66,48.9070314 66.2893333,49.2789059 Z"/>
    <path fill="#15203B" d="M29.8330446 39L23.1669554 39C21.4202036 39 20 40.52945 20 42.4105673L20 49.5894327C20 51.47055 21.4202036 53 23.1669554 53L29.8330446 53C31.5797964 53 33 51.47055 33 49.5894327L33 42.4105673C33 40.52945 31.581204 39 29.8330446 39zM30.8886964 49.5909485C30.8886964 50.2184929 30.4157644 50.7278042 29.8330446 50.7278042L23.1669554 50.7278042C22.5842356 50.7278042 22.1113036 50.2184929 22.1113036 49.5909485L22.1113036 42.4120832C22.1113036 41.7845388 22.5842356 41.2752274 23.1669554 41.2752274L29.8330446 41.2752274C30.4157644 41.2752274 30.8886964 41.7845388 30.8886964 42.4120832L30.8886964 49.5909485zM43.1669554 53L49.8330446 53C51.5797964 53 53 51.47055 53 49.5894327L53 42.4105673C53 40.52945 51.5797964 39 49.8330446 39L43.1669554 39C41.4202036 39 40 40.52945 40 42.4105673L40 49.5894327C40 51.47055 41.4202036 53 43.1669554 53zM42.1113036 42.4090515C42.1113036 41.7815071 42.5842356 41.2721958 43.1669554 41.2721958L49.8330446 41.2721958C50.4157644 41.2721958 50.8886964 41.7815071 50.8886964 42.4090515L50.8886964 49.5879168C50.8886964 50.2154612 50.4157644 50.7247726 49.8330446 50.7247726L43.1669554 50.7247726C42.5842356 50.7247726 42.1113036 50.2154612 42.1113036 49.5879168L42.1113036 42.4090515z"/>
    <path fill="#1A171B" d="M66.2893333,30.2789059 C66.0986667,30.4708844 66,30.7219332 66,30.9931197 C66,31.2549085 66.1,31.5180399 66.2893333,31.708676 C66.4786667,31.8899144 66.7293333,32 67,32 C67.26,32 67.52,31.8899144 67.7093333,31.708676 C67.8893333,31.5166974 68,31.2549085 68,30.9931197 C68,30.7219332 67.8893333,30.4695419 67.7,30.2789059 C67.3293333,29.9070314 66.6693333,29.9070314 66.2893333,30.2789059 Z"/>
    <path fill="#FFC953" d="M28.1086076 28.5578878C28.1071126 28.4871441 28.0981428 28.4209159 28.0981428 28.348667 28.0981428 28.1108476 28.1086076 27.8685128 28.1280424 27.6261779 28.1310323 27.5810223 28.1400022 27.5343615 28.1444871 27.489206 28.1639219 27.2905215 28.1848516 27.0918369 28.2162462 26.8931524 28.2177411 26.8750902 28.2222261 26.8600384 28.225216 26.8419761 28.7080945 23.9189055 30.5364546 21.0289491 33.1167895 19.5117219 34.2111146 20.3711829 35.5491214 20.8844512 37.0007466 20.8844512 38.447887 20.8844512 39.7829038 20.3741933 40.8757339 19.5177426 40.9714126 19.5734345 41.0760612 19.6125693 41.1702449 19.6742819 41.2823684 19.748036 41.384027 19.8398524 41.4946555 19.918122 41.7816916 20.1213221 42.0702227 20.3260273 42.3363291 20.5623415 42.4349977 20.6511474 42.5187166 20.7535001 42.6129003 20.8453164 42.8715318 21.0951772 43.1301633 21.3465432 43.3618851 21.6250026 43.4560688 21.7348811 43.5308178 21.8598115 43.6175266 21.9742057 43.8328037 22.2511598 44.0480808 22.528114 44.2349532 22.8231304 44.327642 22.9706386 44.397906 23.1286831 44.4831199 23.2807068 44.6415877 23.5621765 44.8075304 23.8391307 44.9405836 24.1311367 45.0302824 24.328316 45.0930716 24.5345265 45.1708105 24.733211 45.2709741 24.9921029 45.3845926 25.2479845 45.4638265 25.5098868 45.5475454 25.7838306 45.5938897 26.0592796 45.6536889 26.3377389 45.6970433 26.5334131 45.7583375 26.7305924 45.7897321 26.9292769 45.8629861 27.4034104 45.9033505 27.8790491 45.9033505 28.348667 45.9033505 28.4209159 45.8943807 28.4871441 45.8913907 28.5578878 40.6649418 32.6218891 33.3350565 32.6218891 28.1086076 28.5578878zM37.0007466 18.6266727C34.5684147 18.6266727 32.5890617 16.391472 32.5890617 13.6399926 32.5890617 11.0706406 34.402472 9.27645931 37.0007466 9.27645931 39.5990213 9.27645931 41.4124316 11.0706406 41.4124316 13.6399926 41.4124316 16.391472 39.4330786 18.6266727 37.0007466 18.6266727z"/>
  </g>
</svg>
